<?xml version="1.0" encoding="iso-8859-1"?>
<!-- Generator: Adobe Illustrator 16.0.0, SVG Export Plug-In . SVG Version: 6.00 Build 0)  -->
<!DOCTYPE svg PUBLIC "-//W3C//DTD SVG 1.1//EN" "http://www.w3.org/Graphics/SVG/1.1/DTD/svg11.dtd">
<svg version="1.1" id="Capa_1" xmlns="http://www.w3.org/2000/svg" xmlns:xlink="http://www.w3.org/1999/xlink" x="0px" y="0px"
	 width="45.544px" height="45.544px" viewBox="0 0 45.544 45.544" style="enable-background:new 0 0 45.544 45.544;"
	 xml:space="preserve">
<g>
	<g>
		<path d="M31.975,18.817h-5.262V13.57c0-2.187-1.768-3.961-3.955-3.961c-2.187,0-3.955,1.774-3.955,3.961v5.247H13.57
			c-2.187,0-3.961,1.768-3.961,3.955c0,2.188,1.774,3.955,3.961,3.955h5.233v5.248c0,2.187,1.768,3.961,3.955,3.961
			c2.188,0,3.955-1.774,3.955-3.961v-5.248h5.262c2.186,0,3.961-1.768,3.961-3.955C35.936,20.585,34.16,18.817,31.975,18.817z"/>
		<path d="M22.772,0C10.196,0,0,10.195,0,22.771C0,35.35,10.196,45.544,22.772,45.544c12.578,0,22.772-10.194,22.772-22.772
			C45.545,10.195,35.35,0,22.772,0z M22.772,39.604c-9.281,0-16.832-7.55-16.832-16.832c0-9.281,7.55-16.832,16.832-16.832
			c9.282,0,16.832,7.55,16.832,16.832C39.604,32.053,32.054,39.604,22.772,39.604z"/>
	</g>
</g>
<g>
</g>
<g>
</g>
<g>
</g>
<g>
</g>
<g>
</g>
<g>
</g>
<g>
</g>
<g>
</g>
<g>
</g>
<g>
</g>
<g>
</g>
<g>
</g>
<g>
</g>
<g>
</g>
<g>
</g>
</svg>
