<?xml version="1.0" encoding="iso-8859-1"?>
<!-- Generator: Adobe Illustrator 16.0.0, SVG Export Plug-In . SVG Version: 6.00 Build 0)  -->
<!DOCTYPE svg PUBLIC "-//W3C//DTD SVG 1.1//EN" "http://www.w3.org/Graphics/SVG/1.1/DTD/svg11.dtd">
<svg version="1.1" id="Capa_1" xmlns="http://www.w3.org/2000/svg" xmlns:xlink="http://www.w3.org/1999/xlink" x="0px" y="0px"
	 width="45.57px" height="45.57px" viewBox="0 0 45.57 45.57" style="enable-background:new 0 0 45.57 45.57;" xml:space="preserve"
	>
<g>
	<g>
		<path d="M22.785,0C10.202,0,0,10.201,0,22.785C0,35.369,10.202,45.57,22.785,45.57S45.57,35.369,45.57,22.785
			C45.57,10.201,35.368,0,22.785,0z M22.785,39.626c-9.287,0-16.841-7.556-16.841-16.841S13.498,5.943,22.785,5.943
			s16.841,7.555,16.841,16.841C39.626,32.07,32.072,39.626,22.785,39.626z"/>
		<path d="M30.864,19.79h-4.972v-8.894c0-1.641-1.319-2.972-2.96-2.972s-2.961,1.331-2.961,2.972v11.888
			c0,1.642,1.326,2.984,2.967,2.984h7.925c1.641,0,2.972-1.348,2.972-2.989C33.835,21.138,32.506,19.79,30.864,19.79z"/>
	</g>
</g>
<g>
</g>
<g>
</g>
<g>
</g>
<g>
</g>
<g>
</g>
<g>
</g>
<g>
</g>
<g>
</g>
<g>
</g>
<g>
</g>
<g>
</g>
<g>
</g>
<g>
</g>
<g>
</g>
<g>
</g>
</svg>
