<?xml version="1.0" encoding="iso-8859-1"?>
<!-- Generator: Adobe Illustrator 16.0.0, SVG Export Plug-In . SVG Version: 6.00 Build 0)  -->
<!DOCTYPE svg PUBLIC "-//W3C//DTD SVG 1.1//EN" "http://www.w3.org/Graphics/SVG/1.1/DTD/svg11.dtd">
<svg version="1.1" id="Capa_1" xmlns="http://www.w3.org/2000/svg" xmlns:xlink="http://www.w3.org/1999/xlink" x="0px" y="0px"
	 width="45.771px" height="45.771px" viewBox="0 0 45.771 45.771" style="enable-background:new 0 0 45.771 45.771;"
	 xml:space="preserve">
<g>
	<path d="M26.806,22.886l9.815-9.856c0.572-0.573,0.856-1.374,0.778-2.18c-0.08-0.807-0.518-1.536-1.188-1.988L23.73,0.463
		c-0.833-0.562-1.916-0.616-2.801-0.145c-0.886,0.472-1.457,1.394-1.457,2.396v13.047l-6.489-6.56
		c-1.056-1.064-2.758-1.071-3.822-0.017c-1.064,1.056-1.072,2.775-0.016,3.839l9.78,9.861l-9.78,9.86
		c-1.056,1.063-1.048,2.782,0.016,3.84c1.064,1.055,2.767,1.049,3.822-0.017l6.489-6.56v13.046c0,1.003,0.571,1.925,1.457,2.396
		c0.885,0.472,1.968,0.417,2.801-0.146l12.48-8.396c0.672-0.453,1.109-1.183,1.188-1.988c0.078-0.807-0.206-1.606-0.778-2.181
		L26.806,22.886z M24.98,7.815l5.517,3.713l-5.517,5.539V7.815z M24.98,37.958v-9.252l5.517,5.539L24.98,37.958z"/>
</g>
<g>
</g>
<g>
</g>
<g>
</g>
<g>
</g>
<g>
</g>
<g>
</g>
<g>
</g>
<g>
</g>
<g>
</g>
<g>
</g>
<g>
</g>
<g>
</g>
<g>
</g>
<g>
</g>
<g>
</g>
</svg>
