<?xml version="1.0" encoding="iso-8859-1"?>
<!-- Generator: Adobe Illustrator 16.0.0, SVG Export Plug-In . SVG Version: 6.00 Build 0)  -->
<!DOCTYPE svg PUBLIC "-//W3C//DTD SVG 1.1//EN" "http://www.w3.org/Graphics/SVG/1.1/DTD/svg11.dtd">
<svg version="1.1" id="Capa_1" xmlns="http://www.w3.org/2000/svg" xmlns:xlink="http://www.w3.org/1999/xlink" x="0px" y="0px"
	 width="45.668px" height="45.668px" viewBox="0 0 45.668 45.668" style="enable-background:new 0 0 45.668 45.668;"
	 xml:space="preserve">
<g>
	<path d="M41.163,13.406h-6.505V9.424c0-3.843-3.176-6.917-7.021-6.917h-9.605c-3.844,0-7.022,3.074-7.022,6.917v3.982H4.507
		C2.034,13.406,0,15.365,0,17.838V38.63c0,2.473,2.034,4.531,4.507,4.531h36.656c2.474,0,4.505-2.059,4.505-4.531V17.838
		C45.668,15.365,43.637,13.406,41.163,13.406z M17.003,9.424c0-0.563,0.465-1.03,1.028-1.03h9.605c0.563,0,1.027,0.468,1.027,1.03
		v3.982H17.003V9.424z M33.672,24.026L21.297,36.399c-0.525,0.524-1.236,0.818-1.979,0.818c-0.742,0-1.454-0.294-1.979-0.818
		l-6.132-6.133c-1.093-1.093-1.093-2.865,0-3.959h0.001c0.524-0.523,1.236-0.818,1.979-0.818c0.743,0,1.453,0.295,1.978,0.818
		l3.653,3.653c0.276,0.276,0.724,0.276,1,0l9.896-9.894c0.523-0.524,1.235-0.819,1.979-0.819c0.742,0,1.454,0.295,1.979,0.819v0.001
		C34.764,21.162,34.764,22.935,33.672,24.026z"/>
</g>
<g>
</g>
<g>
</g>
<g>
</g>
<g>
</g>
<g>
</g>
<g>
</g>
<g>
</g>
<g>
</g>
<g>
</g>
<g>
</g>
<g>
</g>
<g>
</g>
<g>
</g>
<g>
</g>
<g>
</g>
</svg>
