<?xml version="1.0" encoding="iso-8859-1"?>
<!-- Generator: Adobe Illustrator 16.0.0, SVG Export Plug-In . SVG Version: 6.00 Build 0)  -->
<!DOCTYPE svg PUBLIC "-//W3C//DTD SVG 1.1//EN" "http://www.w3.org/Graphics/SVG/1.1/DTD/svg11.dtd">
<svg version="1.1" id="Capa_1" xmlns="http://www.w3.org/2000/svg" xmlns:xlink="http://www.w3.org/1999/xlink" x="0px" y="0px"
	 width="46.996px" height="46.996px" viewBox="0 0 46.996 46.996" style="enable-background:new 0 0 46.996 46.996;"
	 xml:space="preserve">
<g>
	<g>
		<path d="M40.12,13.312h-4.019V6.178c0-1.915-1.545-3.438-3.459-3.438H14.367c-1.916,0-3.473,1.523-3.473,3.438v7.135H6.888
			C3.091,13.313,0,16.419,0,20.217v17.189c0,3.797,3.09,6.85,6.888,6.85H40.12c3.797,0,6.876-3.053,6.876-6.85V20.217
			C46.996,16.419,43.917,13.312,40.12,13.312z M17.148,9.493c0-0.276,0.224-0.5,0.5-0.5h11.7c0.276,0,0.5,0.224,0.5,0.5v3.82h-12.7
			V9.493z M23.504,39.947c-6.052,0-10.957-4.905-10.957-10.958c0-6.052,4.905-10.957,10.957-10.957
			c6.053,0,10.957,4.905,10.957,10.957C34.461,35.042,29.557,39.947,23.504,39.947z"/>
		<circle cx="23.504" cy="28.99" r="4.833"/>
	</g>
</g>
<g>
</g>
<g>
</g>
<g>
</g>
<g>
</g>
<g>
</g>
<g>
</g>
<g>
</g>
<g>
</g>
<g>
</g>
<g>
</g>
<g>
</g>
<g>
</g>
<g>
</g>
<g>
</g>
<g>
</g>
</svg>
