<?xml version="1.0" encoding="iso-8859-1"?>
<!-- Generator: Adobe Illustrator 16.0.0, SVG Export Plug-In . SVG Version: 6.00 Build 0)  -->
<!DOCTYPE svg PUBLIC "-//W3C//DTD SVG 1.1//EN" "http://www.w3.org/Graphics/SVG/1.1/DTD/svg11.dtd">
<svg version="1.1" id="Capa_1" xmlns="http://www.w3.org/2000/svg" xmlns:xlink="http://www.w3.org/1999/xlink" x="0px" y="0px"
	 width="45.36px" height="45.36px" viewBox="0 0 45.36 45.36" style="enable-background:new 0 0 45.36 45.36;" xml:space="preserve"
	>
<g>
	<g>
		<path d="M22.726,8.062c1.682,0,3.043-1.361,3.043-3.043c0,0,0.055-1.422-0.741-2.817c-0.408-0.719-0.673-1.233-0.795-1.672
			C24.17,0.3,23.999,0.117,23.774,0.04c-0.224-0.078-0.472-0.041-0.663,0.099c-0.998,0.729-2.381,1.948-3.081,3.493
			c-0.122,0.234-0.222,0.479-0.279,0.744c-0.002,0.007-0.005,0.019-0.007,0.019l0,0c-0.042,0.208-0.063,0.411-0.063,0.623
			C19.683,6.698,21.044,8.062,22.726,8.062z"/>
		<path d="M41.581,21.349c-1.662-2.893-5.865-6.396-16.395-7.247v-3.729c0-0.773-0.639-1.392-1.412-1.392h-2.098
			c-0.772,0-1.39,0.618-1.39,1.392v3.563c-10.088,0.176-16.262,3.656-17.415,9.848c-0.664,3.562,0.461,4.801,1.522,6.091
			c0.635,0.771,1.389,1.363,2.179,1.802c0.002,0.001,0.005,0.003,0.008,0.004c0,0-0.008,10.218-0.008,10.253
			c0,1.894,7.239,3.428,16.161,3.428c8.923,0,16.161-1.521,16.161-3.414v-10.04c1.251-0.777,2.296-1.848,2.997-3.171
			C43.057,26.535,42.933,23.703,41.581,21.349z M36.692,25.986c-0.658,1.244-2.262,1.506-3.49,1.506
			c-1.706,0-3.757-0.489-6.098-1.454c-2.133-0.878-5.904-1.801-8.208-1.434c-1.546,0.246-2.792,1.027-3.891,1.717
			c-1.359,0.853-2.534,1.588-4.365,1.588l-0.07-0.001c-0.425-0.004-1.212-0.2-1.641-0.721c-0.484-0.589-0.422-1.593-0.284-2.331
			c0.85-4.562,8.988-5.056,12.448-5.056c0.592,0,1.134,0.013,1.605,0.033c10.681,0.439,13.253,3.509,13.789,4.438
			C36.942,25.07,36.831,25.724,36.692,25.986z"/>
	</g>
</g>
<g>
</g>
<g>
</g>
<g>
</g>
<g>
</g>
<g>
</g>
<g>
</g>
<g>
</g>
<g>
</g>
<g>
</g>
<g>
</g>
<g>
</g>
<g>
</g>
<g>
</g>
<g>
</g>
<g>
</g>
</svg>
