<?xml version="1.0" encoding="iso-8859-1"?>
<!-- Generator: Adobe Illustrator 16.0.0, SVG Export Plug-In . SVG Version: 6.00 Build 0)  -->
<!DOCTYPE svg PUBLIC "-//W3C//DTD SVG 1.1//EN" "http://www.w3.org/Graphics/SVG/1.1/DTD/svg11.dtd">
<svg version="1.1" id="Capa_1" xmlns="http://www.w3.org/2000/svg" xmlns:xlink="http://www.w3.org/1999/xlink" x="0px" y="0px"
	 width="45.961px" height="45.962px" viewBox="0 0 45.961 45.962" style="enable-background:new 0 0 45.961 45.962;"
	 xml:space="preserve">
<g>
	<path d="M29.393,13.454c1.263,0,2.289-3.012,2.289-6.726C31.682,3.013,30.657,0,29.393,0c-0.016,0-5.676,0.023-5.676,0.023
		c-5.241,0.354-9.438,4.725-9.438,10.065v25.784c0,5.571,4.566,10.09,10.122,10.09c0,0,4.976,0,4.99,0
		c1.263,0,2.289-3.011,2.289-6.728c0-3.715-1.025-6.727-2.289-6.727c-0.017,0-4.99,0.033-4.99,0.033V13.44
		C24.402,13.44,29.377,13.454,29.393,13.454z"/>
</g>
<g>
</g>
<g>
</g>
<g>
</g>
<g>
</g>
<g>
</g>
<g>
</g>
<g>
</g>
<g>
</g>
<g>
</g>
<g>
</g>
<g>
</g>
<g>
</g>
<g>
</g>
<g>
</g>
<g>
</g>
</svg>
