<?xml version="1.0" encoding="iso-8859-1"?>
<!-- Generator: Adobe Illustrator 16.0.0, SVG Export Plug-In . SVG Version: 6.00 Build 0)  -->
<!DOCTYPE svg PUBLIC "-//W3C//DTD SVG 1.1//EN" "http://www.w3.org/Graphics/SVG/1.1/DTD/svg11.dtd">
<svg version="1.1" id="Capa_1" xmlns="http://www.w3.org/2000/svg" xmlns:xlink="http://www.w3.org/1999/xlink" x="0px" y="0px"
	 width="44.7px" height="44.7px" viewBox="0 0 44.7 44.7" style="enable-background:new 0 0 44.7 44.7;" xml:space="preserve">
<g>
	<g>
		<ellipse cx="22.489" cy="20.739" rx="3.396" ry="3.384"/>
		<ellipse cx="31.785" cy="20.739" rx="3.396" ry="3.384"/>
		<ellipse cx="41.081" cy="20.739" rx="3.396" ry="3.384"/>
		<path d="M23.328,29.744c-0.015,0.007-4.544,1.932-4.544,1.932l-7.276-17.441c0,0,4.549-1.884,4.561-1.889
			c1.154-0.48,0.942-3.621-0.472-7.012c-1.416-3.392-3.499-5.752-4.652-5.272C10.93,0.069,5.773,2.245,5.773,2.245
			c-4.652,2.32-6.818,7.909-4.784,12.786l9.821,23.541c2.121,5.088,8.013,7.474,13.084,5.357c0,0,4.542-1.896,4.558-1.9
			c1.151-0.48,0.941-3.621-0.474-7.014C26.562,31.623,24.48,29.264,23.328,29.744z"/>
	</g>
</g>
<g>
</g>
<g>
</g>
<g>
</g>
<g>
</g>
<g>
</g>
<g>
</g>
<g>
</g>
<g>
</g>
<g>
</g>
<g>
</g>
<g>
</g>
<g>
</g>
<g>
</g>
<g>
</g>
<g>
</g>
</svg>
