<?xml version="1.0" encoding="iso-8859-1"?>
<!-- Generator: Adobe Illustrator 16.0.0, SVG Export Plug-In . SVG Version: 6.00 Build 0)  -->
<!DOCTYPE svg PUBLIC "-//W3C//DTD SVG 1.1//EN" "http://www.w3.org/Graphics/SVG/1.1/DTD/svg11.dtd">
<svg version="1.1" id="Capa_1" xmlns="http://www.w3.org/2000/svg" xmlns:xlink="http://www.w3.org/1999/xlink" x="0px" y="0px"
	 width="45.917px" height="45.917px" viewBox="0 0 45.917 45.917" style="enable-background:new 0 0 45.917 45.917;"
	 xml:space="preserve">
<g>
	<path d="M45.91,31.937l-0.531-9.997c-0.127-2.388-2.1-4.264-4.488-4.264h-0.016v-4.95c0-4.85-3.94-8.833-8.792-8.833h-18.25
		c-4.851,0-8.792,3.982-8.792,8.833v4.951H5.026c-2.389,0-4.362,1.876-4.489,4.264l-0.531,9.994
		c-0.065,1.231,0.382,2.438,1.231,3.334c0.232,0.245,0.495,0.461,0.771,0.646v3.75c0,1.311,1.055,2.36,2.365,2.36h3.692
		c1.311,0,2.396-1.05,2.396-2.36v-2.969h24.994v2.969c0,1.311,1.085,2.36,2.396,2.36h3.691c1.31,0,2.365-1.05,2.365-2.36v-3.75
		c0.275-0.185,0.538-0.399,0.772-0.646C45.529,34.373,45.978,33.17,45.91,31.937z M8.125,30.146c-1.639,0-2.965-1.329-2.965-2.967
		c0-1.639,1.326-2.967,2.965-2.967c1.64,0,2.968,1.328,2.968,2.967S9.766,30.146,8.125,30.146z M33.801,17.677H12.116v-4.951
		c0-0.956,0.763-1.758,1.718-1.758h18.25c0.956,0,1.718,0.802,1.718,1.758V17.677z M37.791,30.146c-1.639,0-2.967-1.329-2.967-2.967
		c0-1.639,1.328-2.967,2.967-2.967c1.64,0,2.966,1.328,2.966,2.967S39.431,30.146,37.791,30.146z"/>
</g>
<g>
</g>
<g>
</g>
<g>
</g>
<g>
</g>
<g>
</g>
<g>
</g>
<g>
</g>
<g>
</g>
<g>
</g>
<g>
</g>
<g>
</g>
<g>
</g>
<g>
</g>
<g>
</g>
<g>
</g>
</svg>
