<?xml version="1.0" encoding="iso-8859-1"?>
<!-- Generator: Adobe Illustrator 16.0.0, SVG Export Plug-In . SVG Version: 6.00 Build 0)  -->
<!DOCTYPE svg PUBLIC "-//W3C//DTD SVG 1.1//EN" "http://www.w3.org/Graphics/SVG/1.1/DTD/svg11.dtd">
<svg version="1.1" id="Capa_1" xmlns="http://www.w3.org/2000/svg" xmlns:xlink="http://www.w3.org/1999/xlink" x="0px" y="0px"
	 width="44.648px" height="44.647px" viewBox="0 0 44.648 44.647" style="enable-background:new 0 0 44.648 44.647;"
	 xml:space="preserve">
<g>
	<g>
		<path d="M39.829,0H4.819C2.518,0,0.654,1.838,0.654,4.14v25.511c0,1.438,0.742,2.776,1.963,3.537l17.39,10.829
			c1.342,0.836,3.04,0.841,4.387,0.013l17.619-10.845c1.23-0.758,1.98-2.101,1.98-3.547V4.14C43.994,1.839,42.13,0,39.829,0z
			 M33.196,17.583l-11.691,11.69c-1.033,1.033-2.708,1.033-3.74,0l-5.794-5.794c-0.497-0.496-0.775-1.169-0.775-1.87
			c0-0.702,0.278-1.374,0.775-1.87v-0.001c0.496-0.496,1.168-0.774,1.87-0.774c0.701,0,1.373,0.279,1.868,0.775l3.453,3.453
			c0.126,0.125,0.296,0.196,0.472,0.196c0.178,0,0.348-0.07,0.474-0.196l9.348-9.348c0.497-0.496,1.17-0.775,1.871-0.774
			c0.7,0,1.374,0.278,1.87,0.775l0,0C34.228,14.876,34.228,16.55,33.196,17.583z"/>
	</g>
</g>
<g>
</g>
<g>
</g>
<g>
</g>
<g>
</g>
<g>
</g>
<g>
</g>
<g>
</g>
<g>
</g>
<g>
</g>
<g>
</g>
<g>
</g>
<g>
</g>
<g>
</g>
<g>
</g>
<g>
</g>
</svg>
