<?xml version="1.0" encoding="iso-8859-1"?>
<!-- Generator: Adobe Illustrator 16.0.0, SVG Export Plug-In . SVG Version: 6.00 Build 0)  -->
<!DOCTYPE svg PUBLIC "-//W3C//DTD SVG 1.1//EN" "http://www.w3.org/Graphics/SVG/1.1/DTD/svg11.dtd">
<svg version="1.1" id="Capa_1" xmlns="http://www.w3.org/2000/svg" xmlns:xlink="http://www.w3.org/1999/xlink" x="0px" y="0px"
	 width="46px" height="46px" viewBox="0 0 46 46" style="enable-background:new 0 0 46 46;" xml:space="preserve">
<g>
	<g>
		<path d="M36.455,17.056h-0.174c-1.577-6-6.885-10.113-13.207-10.113s-11.63,4.113-13.207,10.113H9.693
			C4.381,17.056,0,21.676,0,26.989v2.762c0,5.312,4.381,9.306,9.693,9.306h26.762c5.312,0,9.545-3.994,9.545-9.307v-2.762
			C46,21.676,41.768,17.056,36.455,17.056z M31.738,22.583l-9.627,9.628c-0.851,0.852-2.229,0.852-3.08,0l-4.772-4.771
			c-0.851-0.852-0.851-2.229,0.001-3.08c0.85-0.852,2.229-0.852,3.078,0l2.845,2.844c0.103,0.104,0.243,0.161,0.389,0.161
			s0.286-0.06,0.389-0.161l7.699-7.7c0.408-0.408,0.962-0.638,1.54-0.638c0.577,0,1.132,0.229,1.54,0.639
			C32.59,20.354,32.59,21.733,31.738,22.583z"/>
	</g>
</g>
<g>
</g>
<g>
</g>
<g>
</g>
<g>
</g>
<g>
</g>
<g>
</g>
<g>
</g>
<g>
</g>
<g>
</g>
<g>
</g>
<g>
</g>
<g>
</g>
<g>
</g>
<g>
</g>
<g>
</g>
</svg>
