<?xml version="1.0" encoding="iso-8859-1"?>
<!-- Generator: Adobe Illustrator 16.0.0, SVG Export Plug-In . SVG Version: 6.00 Build 0)  -->
<!DOCTYPE svg PUBLIC "-//W3C//DTD SVG 1.1//EN" "http://www.w3.org/Graphics/SVG/1.1/DTD/svg11.dtd">
<svg version="1.1" id="Capa_1" xmlns="http://www.w3.org/2000/svg" xmlns:xlink="http://www.w3.org/1999/xlink" x="0px" y="0px"
	 width="45.725px" height="45.725px" viewBox="0 0 45.725 45.725" style="enable-background:new 0 0 45.725 45.725;"
	 xml:space="preserve">
<g>
	<g>
		<path d="M9.405,25.479C4.218,25.479,0,29.698,0,34.885s4.219,9.407,9.405,9.407c5.188,0,9.407-4.22,9.407-9.407
			S14.593,25.479,9.405,25.479z M9.405,40.305c-2.987,0-5.419-2.432-5.419-5.42s2.432-5.42,5.419-5.42
			c2.989,0,5.421,2.432,5.421,5.42S12.395,40.305,9.405,40.305z"/>
		<path d="M36.318,25.479c-5.188,0-9.406,4.219-9.406,9.406s4.219,9.407,9.406,9.407c5.188,0,9.406-4.22,9.406-9.407
			S41.506,25.479,36.318,25.479z M36.318,40.305c-2.988,0-5.42-2.432-5.42-5.42s2.432-5.42,5.42-5.42c2.987,0,5.42,2.432,5.42,5.42
			S39.306,40.305,36.318,40.305z"/>
		<path d="M24.777,25.198l-5.056-4.479l5.487-5.25l2.574,3.894c0.531,0.806,1.42,1.305,2.388,1.339l5.058,0.179
			c1.633,0.062,3.034-1.232,3.094-2.882c0.059-1.651-1.232-3.036-2.883-3.094l-3.52-0.124l-3.7-5.594
			c-0.489-0.739-1.28-1.224-2.16-1.322c-0.885-0.098-1.76,0.197-2.4,0.811L13.237,18.64c-0.604,0.578-0.938,1.381-0.922,2.217
			c0.014,0.835,0.385,1.626,1.01,2.181l6.478,5.741v10.244c0,1.65,1.345,2.989,2.996,2.989c1.652,0,2.997-1.339,2.997-2.989V27.433
			C25.795,26.579,25.416,25.764,24.777,25.198z"/>
		<circle cx="32.363" cy="5.388" r="3.956"/>
	</g>
</g>
<g>
</g>
<g>
</g>
<g>
</g>
<g>
</g>
<g>
</g>
<g>
</g>
<g>
</g>
<g>
</g>
<g>
</g>
<g>
</g>
<g>
</g>
<g>
</g>
<g>
</g>
<g>
</g>
<g>
</g>
</svg>
