<?xml version="1.0" encoding="iso-8859-1"?>
<!-- Generator: Adobe Illustrator 16.0.0, SVG Export Plug-In . SVG Version: 6.00 Build 0)  -->
<!DOCTYPE svg PUBLIC "-//W3C//DTD SVG 1.1//EN" "http://www.w3.org/Graphics/SVG/1.1/DTD/svg11.dtd">
<svg version="1.1" id="Capa_1" xmlns="http://www.w3.org/2000/svg" xmlns:xlink="http://www.w3.org/1999/xlink" x="0px" y="0px"
	 width="45.808px" height="45.808px" viewBox="0 0 45.808 45.808" style="enable-background:new 0 0 45.808 45.808;"
	 xml:space="preserve">
<g>
	<g>
		<path d="M42.491,37.625c-1.957-1.179-5.053-1.508-5.115-6.154c-0.033-2.757,1.916-5.773,2.468-8.4
			c1.216-5.772-0.164-9.369-0.526-10.789C36.987,3.189,25.97-1.948,15.655,0.692c-5.49,1.405-9.876,4.766-12.441,8.965
			c-0.76,1.192-1.354,2.467-1.759,3.805c-0.594,1.89-0.821,3.869-0.67,5.862c0.269,4.865,2.489,9.853,6.578,13.686
			c7.769,7.281,29.988,17.367,36.408,10.519C46.172,40.966,44.946,39.105,42.491,37.625z M9.876,21.161
			c-1.762,0-3.19-1.429-3.19-3.191s1.429-3.191,3.19-3.191c1.763,0,3.192,1.429,3.192,3.191S11.64,21.161,9.876,21.161z
			 M18.589,12.45c-1.762,0-3.19-1.429-3.19-3.191s1.429-3.191,3.19-3.191c1.763,0,3.192,1.429,3.192,3.191
			S20.352,12.45,18.589,12.45z M29.987,16.153c-1.764,0-3.191-1.429-3.191-3.191c0-1.762,1.429-3.191,3.191-3.191
			c1.762,0,3.19,1.429,3.19,3.191C33.178,14.724,31.749,16.153,29.987,16.153z"/>
	</g>
</g>
<g>
</g>
<g>
</g>
<g>
</g>
<g>
</g>
<g>
</g>
<g>
</g>
<g>
</g>
<g>
</g>
<g>
</g>
<g>
</g>
<g>
</g>
<g>
</g>
<g>
</g>
<g>
</g>
<g>
</g>
</svg>
