<?xml version="1.0" encoding="iso-8859-1"?>
<!-- Generator: Adobe Illustrator 16.0.0, SVG Export Plug-In . SVG Version: 6.00 Build 0)  -->
<!DOCTYPE svg PUBLIC "-//W3C//DTD SVG 1.1//EN" "http://www.w3.org/Graphics/SVG/1.1/DTD/svg11.dtd">
<svg version="1.1" id="Capa_1" xmlns="http://www.w3.org/2000/svg" xmlns:xlink="http://www.w3.org/1999/xlink" x="0px" y="0px"
	 width="44.332px" height="44.332px" viewBox="0 0 44.332 44.332" style="enable-background:new 0 0 44.332 44.332;"
	 xml:space="preserve">
<g>
	<g>
		<path d="M35.943,44.332c-0.879,0-1.758-0.207-2.545-0.598L22.166,38.16l-11.233,5.574c-1.742,0.863-3.908,0.763-5.561-0.264
			c-1.694-1.048-2.706-2.867-2.706-4.861V5.723C2.666,2.567,5.233,0,8.389,0h27.554c3.156,0,5.723,2.567,5.723,5.723v32.886
			c0,1.996-1.012,3.813-2.708,4.863C38.055,44.034,37.01,44.332,35.943,44.332z M22.166,32.129c0.877,0,1.756,0.206,2.542,0.596
			l10.958,5.438V6h-27v32.162l10.956-5.438C20.41,32.335,21.289,32.129,22.166,32.129z"/>
	</g>
</g>
<g>
</g>
<g>
</g>
<g>
</g>
<g>
</g>
<g>
</g>
<g>
</g>
<g>
</g>
<g>
</g>
<g>
</g>
<g>
</g>
<g>
</g>
<g>
</g>
<g>
</g>
<g>
</g>
<g>
</g>
</svg>
