<?xml version="1.0" encoding="iso-8859-1"?>
<!-- Generator: Adobe Illustrator 16.0.0, SVG Export Plug-In . SVG Version: 6.00 Build 0)  -->
<!DOCTYPE svg PUBLIC "-//W3C//DTD SVG 1.1//EN" "http://www.w3.org/Graphics/SVG/1.1/DTD/svg11.dtd">
<svg version="1.1" id="Capa_1" xmlns="http://www.w3.org/2000/svg" xmlns:xlink="http://www.w3.org/1999/xlink" x="0px" y="0px"
	 width="46px" height="46px" viewBox="0 0 46 46" style="enable-background:new 0 0 46 46;" xml:space="preserve">
<g>
	<g>
		<path d="M35.822,6C38.126,6,40,7.875,40,10.178v25.646C40,38.127,38.126,40,35.822,40H10.178C7.874,40,6,38.127,6,35.822V10.178
			C6,7.875,7.874,6,10.178,6H35.822 M35.822,0H10.178C4.557,0,0,4.557,0,10.178v25.646C0,41.443,4.557,46,10.178,46h25.645
			C41.443,46,46,41.443,46,35.822V10.178C46,4.557,41.443,0,35.822,0L35.822,0z"/>
	</g>
</g>
<g>
</g>
<g>
</g>
<g>
</g>
<g>
</g>
<g>
</g>
<g>
</g>
<g>
</g>
<g>
</g>
<g>
</g>
<g>
</g>
<g>
</g>
<g>
</g>
<g>
</g>
<g>
</g>
<g>
</g>
</svg>
