<?xml version="1.0" encoding="iso-8859-1"?>
<!-- Generator: Adobe Illustrator 16.0.0, SVG Export Plug-In . SVG Version: 6.00 Build 0)  -->
<!DOCTYPE svg PUBLIC "-//W3C//DTD SVG 1.1//EN" "http://www.w3.org/Graphics/SVG/1.1/DTD/svg11.dtd">
<svg version="1.1" id="Capa_1" xmlns="http://www.w3.org/2000/svg" xmlns:xlink="http://www.w3.org/1999/xlink" x="0px" y="0px"
	 width="45.831px" height="45.83px" viewBox="0 0 45.831 45.83" style="enable-background:new 0 0 45.831 45.83;"
	 xml:space="preserve">
<g>
	<path d="M45.6,17.365c-0.607-1.868-2.332-3.191-4.294-3.294l-10.248-0.515L27.375,3.95c-0.703-1.834-2.495-3.066-4.459-3.066
		s-3.756,1.232-4.459,3.065L14.8,13.537L4.523,14.071c-1.961,0.103-3.686,1.426-4.293,3.295c-0.605,1.867,0.012,3.95,1.538,5.187
		l7.99,6.44l-2.667,9.938c-0.51,1.896,0.215,3.947,1.805,5.102c1.571,1.143,3.782,1.199,5.409,0.143l8.594-5.607l8.627,5.607
		c0.777,0.505,1.676,0.771,2.603,0.771c1.016,0,1.986-0.315,2.805-0.912c1.59-1.151,2.317-3.203,1.808-5.102l-2.678-9.906
		l8.001-6.475C45.589,21.316,46.207,19.231,45.6,17.365z M32.316,24.399c-1.816,1.471-2.599,3.881-1.993,6.137l1.376,5.131
		c0.079,0.291-0.03,0.603-0.275,0.779c-0.245,0.178-0.574,0.188-0.828,0.021l-4.453-2.895c-0.892-0.58-1.929-0.879-2.977-0.922
		V10.809c0-0.107,0.077-0.2,0.182-0.22c0.106-0.02,0.21,0.039,0.249,0.14l1.902,4.959c0.837,2.183,2.886,3.672,5.222,3.795
		l5.304,0.275c0.302,0.016,0.564,0.216,0.657,0.504c0.094,0.288,0,0.604-0.235,0.794L32.316,24.399z"/>
</g>
<g>
</g>
<g>
</g>
<g>
</g>
<g>
</g>
<g>
</g>
<g>
</g>
<g>
</g>
<g>
</g>
<g>
</g>
<g>
</g>
<g>
</g>
<g>
</g>
<g>
</g>
<g>
</g>
<g>
</g>
</svg>
