<?xml version="1.0" encoding="iso-8859-1"?>
<!-- Generator: Adobe Illustrator 16.0.0, SVG Export Plug-In . SVG Version: 6.00 Build 0)  -->
<!DOCTYPE svg PUBLIC "-//W3C//DTD SVG 1.1//EN" "http://www.w3.org/Graphics/SVG/1.1/DTD/svg11.dtd">
<svg version="1.1" id="Capa_1" xmlns="http://www.w3.org/2000/svg" xmlns:xlink="http://www.w3.org/1999/xlink" x="0px" y="0px"
	 width="45.971px" height="45.971px" viewBox="0 0 45.971 45.971" style="enable-background:new 0 0 45.971 45.971;"
	 xml:space="preserve">
<g>
	<path d="M45.968,7.264c0-2.807-2.274-5.081-5.081-5.081H5.081C2.274,2.182,0,4.457,0,7.264v31.444c0,2.807,2.274,5.08,5.081,5.08
		c0.576,0,1.043-0.467,1.043-1.043v-2.166c0-0.561,0.419-0.984,0.979-0.984h6.087c0.561,0,0.987,0.425,0.987,0.984v2.166
		c0,0.576,0.467,1.043,1.043,1.043h15.53c0.576,0,1.043-0.467,1.043-1.043v-2.166c0-0.561,0.45-0.984,1.01-0.984h6.088
		c0.56,0,1.039,0.425,1.039,0.984v2.25c0,0.529,0.43,0.959,0.959,0.959c2.807,0,5.082-2.273,5.082-5.08V7.264H45.968z M14.26,30.442
		c0,0.561-0.454,1.016-1.014,1.016H7.138c-0.56,0-1.014-0.455-1.014-1.016v-6.107c0-0.561,0.454-1.016,1.014-1.016h6.108
		c0.56,0,1.014,0.455,1.014,1.016V30.442z M14.26,14.253c0,0.56-0.454,1.014-1.015,1.014H7.138c-0.56,0-1.014-0.454-1.014-1.014
		v-6.11c0-0.559,0.454-1.013,1.014-1.013h6.108c0.561,0,1.015,0.454,1.015,1.013v6.11H14.26z M39.93,30.442
		c0,0.561-0.455,1.016-1.015,1.016h-6.108c-0.56,0-1.014-0.455-1.014-1.016v-6.107c0-0.561,0.454-1.016,1.014-1.016h6.108
		c0.56,0,1.015,0.455,1.015,1.016V30.442z M39.93,14.253c0,0.56-0.455,1.014-1.015,1.014h-6.108c-0.56,0-1.014-0.454-1.014-1.014
		v-6.11c0-0.559,0.454-1.013,1.014-1.013h6.108c0.56,0,1.015,0.454,1.015,1.013V14.253z"/>
</g>
<g>
</g>
<g>
</g>
<g>
</g>
<g>
</g>
<g>
</g>
<g>
</g>
<g>
</g>
<g>
</g>
<g>
</g>
<g>
</g>
<g>
</g>
<g>
</g>
<g>
</g>
<g>
</g>
<g>
</g>
</svg>
