<?xml version="1.0" encoding="iso-8859-1"?>
<!-- Generator: Adobe Illustrator 16.0.0, SVG Export Plug-In . SVG Version: 6.00 Build 0)  -->
<!DOCTYPE svg PUBLIC "-//W3C//DTD SVG 1.1//EN" "http://www.w3.org/Graphics/SVG/1.1/DTD/svg11.dtd">
<svg version="1.1" id="Capa_1" xmlns="http://www.w3.org/2000/svg" xmlns:xlink="http://www.w3.org/1999/xlink" x="0px" y="0px"
	 width="46.216px" height="46.216px" viewBox="0 0 46.216 46.216" style="enable-background:new 0 0 46.216 46.216;"
	 xml:space="preserve">
<g>
	<path d="M38.527,8.915H27.896V7.578c0-2.074-1.632-3.714-3.706-3.714H10.004V3.07C10.004,1.373,8.649,0,6.953,0
		C5.256,0,3.9,1.373,3.9,3.07v40.074c0,1.696,1.355,3.072,3.052,3.072c1.697,0,3.052-1.376,3.052-3.072V25.335h9.788v1.358
		c0,2.073,1.642,3.799,3.716,3.799h15.019c2.074,0,3.788-1.726,3.788-3.799V12.699C42.315,10.625,40.602,8.915,38.527,8.915z"/>
</g>
<g>
</g>
<g>
</g>
<g>
</g>
<g>
</g>
<g>
</g>
<g>
</g>
<g>
</g>
<g>
</g>
<g>
</g>
<g>
</g>
<g>
</g>
<g>
</g>
<g>
</g>
<g>
</g>
<g>
</g>
</svg>
