<?xml version="1.0" encoding="iso-8859-1"?>
<!-- Generator: Adobe Illustrator 16.0.0, SVG Export Plug-In . SVG Version: 6.00 Build 0)  -->
<!DOCTYPE svg PUBLIC "-//W3C//DTD SVG 1.1//EN" "http://www.w3.org/Graphics/SVG/1.1/DTD/svg11.dtd">
<svg version="1.1" id="Capa_1" xmlns="http://www.w3.org/2000/svg" xmlns:xlink="http://www.w3.org/1999/xlink" x="0px" y="0px"
	 width="46px" height="46px" viewBox="0 0 46 46" style="enable-background:new 0 0 46 46;" xml:space="preserve">
<g>
	<g>
		<path d="M23,0C10.298,0,0,10.297,0,23s10.298,23,23,23s23-10.297,23-23S35.702,0,23,0z M29.4,17.578
			c1.271,0,2.354,1.481,2.785,3.568c0.076,0.375-0.02,0.764-0.261,1.061c-0.241,0.296-0.604,0.47-0.985,0.47h-3.076
			c-0.383,0-0.745-0.172-0.986-0.469c-0.242-0.296-0.337-0.687-0.26-1.061C27.047,19.059,28.13,17.578,29.4,17.578z M16.6,17.578
			c1.271,0,2.354,1.482,2.784,3.568c0.077,0.375-0.019,0.764-0.261,1.061c-0.241,0.296-0.604,0.47-0.985,0.47h-3.076
			c-0.382,0-0.744-0.172-0.986-0.469c-0.241-0.297-0.337-0.687-0.26-1.062C14.245,19.06,15.328,17.578,16.6,17.578z M23,37.729
			c-5.987,0-11.215-3.25-14.021-8.08C8.75,29.255,8.75,28.77,8.977,28.375s0.647-0.636,1.103-0.636h25.84
			c0.454,0,0.875,0.243,1.102,0.637c0.229,0.394,0.229,0.88,0,1.272C34.215,34.479,28.986,37.729,23,37.729z"/>
	</g>
</g>
<g>
</g>
<g>
</g>
<g>
</g>
<g>
</g>
<g>
</g>
<g>
</g>
<g>
</g>
<g>
</g>
<g>
</g>
<g>
</g>
<g>
</g>
<g>
</g>
<g>
</g>
<g>
</g>
<g>
</g>
</svg>
