<?xml version="1.0" encoding="iso-8859-1"?>
<!-- Generator: Adobe Illustrator 16.0.0, SVG Export Plug-In . SVG Version: 6.00 Build 0)  -->
<!DOCTYPE svg PUBLIC "-//W3C//DTD SVG 1.1//EN" "http://www.w3.org/Graphics/SVG/1.1/DTD/svg11.dtd">
<svg version="1.1" id="Capa_1" xmlns="http://www.w3.org/2000/svg" xmlns:xlink="http://www.w3.org/1999/xlink" x="0px" y="0px"
	 width="45.758px" height="45.758px" viewBox="0 0 45.758 45.758" style="enable-background:new 0 0 45.758 45.758;"
	 xml:space="preserve">
<g>
	<g>
		<path d="M45.756,4.923c0-2.356-1.908-4.28-4.267-4.28h-26.13c-1.475,0-2.845,0.773-3.623,2.024L0.645,20.486
			c-0.856,1.374-0.86,3.117-0.013,4.496l11.107,18.075c0.775,1.263,2.152,2.058,3.635,2.058H41.49c1.132,0,2.217-0.475,3.018-1.275
			c0.802-0.799,1.25-1.903,1.25-3.036L45.756,4.923z M25.382,34.825c-6.605,0-11.958-5.354-11.958-11.959
			c0-6.605,5.353-11.958,11.958-11.958c6.604,0,11.958,5.353,11.958,11.958C37.34,29.471,31.985,34.825,25.382,34.825z"/>
		<path d="M22.055,20c-0.68,0-1.255,0.813-1.466,1.943c-0.032,0.175,0.015,0.354,0.128,0.491c0.113,0.137,0.282,0.217,0.46,0.217
			h1.754c0.178,0,0.347-0.079,0.46-0.216c0.113-0.137,0.16-0.317,0.128-0.492C23.307,20.812,22.73,20,22.055,20z"/>
		<path d="M28.71,20c-0.679,0-1.255,0.813-1.466,1.943c-0.032,0.175,0.015,0.354,0.128,0.491s0.282,0.217,0.46,0.217h1.754
			c0.18,0,0.348-0.079,0.46-0.216c0.114-0.137,0.16-0.317,0.128-0.492C29.962,20.812,29.389,20,28.71,20z"/>
		<path d="M25.382,30.469c3.185,0,5.953-1.743,7.388-4.366c0.095-0.173,0.091-0.384-0.011-0.555
			c-0.102-0.17-0.283-0.273-0.481-0.273H18.487c-0.197,0-0.38,0.104-0.481,0.273c-0.101,0.171-0.104,0.382-0.01,0.555
			C19.428,28.726,22.197,30.469,25.382,30.469z"/>
	</g>
</g>
<g>
</g>
<g>
</g>
<g>
</g>
<g>
</g>
<g>
</g>
<g>
</g>
<g>
</g>
<g>
</g>
<g>
</g>
<g>
</g>
<g>
</g>
<g>
</g>
<g>
</g>
<g>
</g>
<g>
</g>
</svg>
