<?xml version="1.0" encoding="iso-8859-1"?>
<!-- Generator: Adobe Illustrator 16.0.0, SVG Export Plug-In . SVG Version: 6.00 Build 0)  -->
<!DOCTYPE svg PUBLIC "-//W3C//DTD SVG 1.1//EN" "http://www.w3.org/Graphics/SVG/1.1/DTD/svg11.dtd">
<svg version="1.1" id="Capa_1" xmlns="http://www.w3.org/2000/svg" xmlns:xlink="http://www.w3.org/1999/xlink" x="0px" y="0px"
	 width="46.109px" height="46.109px" viewBox="0 0 46.109 46.109" style="enable-background:new 0 0 46.109 46.109;"
	 xml:space="preserve">
<g>
	<path d="M23.054,0C10.343,0,0,10.342,0,23.054c0,12.713,10.343,23.055,23.055,23.055c12.712,0,23.054-10.344,23.054-23.055
		C46.109,10.342,35.766,0,23.054,0z M36.494,14.299l-8.248,3.277c-1.354-1.283-3.179-2.076-5.191-2.076
		c-1.886,0-3.605,0.695-4.929,1.838l-5.542-6.427C15.398,8.48,19.054,7,23.055,7C28.678,7,33.626,9.911,36.494,14.299z
		 M23.054,39.109c-4.777,0-9.062-2.109-12.005-5.432l6.354-5.623c1.384,1.563,3.399,2.555,5.651,2.555c3.778,0,6.9-2.777,7.458-6.4
		l8.43-3.35c0.099,0.72,0.168,1.448,0.168,2.194C39.109,31.907,31.907,39.109,23.054,39.109z"/>
</g>
<g>
</g>
<g>
</g>
<g>
</g>
<g>
</g>
<g>
</g>
<g>
</g>
<g>
</g>
<g>
</g>
<g>
</g>
<g>
</g>
<g>
</g>
<g>
</g>
<g>
</g>
<g>
</g>
<g>
</g>
</svg>
