<?xml version="1.0" encoding="iso-8859-1"?>
<!-- Generator: Adobe Illustrator 16.0.0, SVG Export Plug-In . SVG Version: 6.00 Build 0)  -->
<!DOCTYPE svg PUBLIC "-//W3C//DTD SVG 1.1//EN" "http://www.w3.org/Graphics/SVG/1.1/DTD/svg11.dtd">
<svg version="1.1" id="Capa_1" xmlns="http://www.w3.org/2000/svg" xmlns:xlink="http://www.w3.org/1999/xlink" x="0px" y="0px"
	 width="46.071px" height="46.071px" viewBox="0 0 46.071 46.071" style="enable-background:new 0 0 46.071 46.071;"
	 xml:space="preserve">
<g>
	<path d="M45.999,8.427c-0.015-4.627-3.77-8.371-8.397-8.371H8.397c-2.232,0-4.372,0.889-5.947,2.469
		C0.874,4.106-0.008,6.25,0,8.481l0.071,22.284c0.015,4.628,3.77,8.29,8.398,8.29h8.294l3.922,5.705
		c0.529,0.76,1.396,1.253,2.321,1.255c0.925,0.002,1.793-0.508,2.326-1.265l3.969-5.695h8.373c2.231,0,4.371-0.807,5.947-2.387
		c1.576-1.582,2.458-3.684,2.45-5.916L45.999,8.427z M22.404,32.811c-1.747,0-2.934-1.286-2.934-3c0-1.748,1.22-3.001,2.934-3.001
		c1.781,0,2.936,1.253,2.968,3.001C25.372,31.524,24.185,32.811,22.404,32.811z M26.653,18.735
		c-1.331,1.475-1.618,2.879-1.618,4.499c0,1.203-0.976,2.18-2.179,2.18h-0.897c-1.191,0-2.161-0.957-2.179-2.146l-0.003-0.233
		c-0.108-1.836,0.504-3.75,2.123-5.693c1.152-1.369,2.088-2.543,2.088-3.767c0-1.26-0.828-2.099-2.627-2.171
		c-0.549,0-1.152,0.092-1.735,0.254c-1.068,0.298-2.181-0.307-2.511-1.367c-0.333-1.068,0.251-2.205,1.313-2.557
		c1.163-0.386,2.585-0.658,4.156-0.658c4.751,0,7.021,2.627,7.021,5.615C29.604,15.423,28.022,17.223,26.653,18.735z"/>
</g>
<g>
</g>
<g>
</g>
<g>
</g>
<g>
</g>
<g>
</g>
<g>
</g>
<g>
</g>
<g>
</g>
<g>
</g>
<g>
</g>
<g>
</g>
<g>
</g>
<g>
</g>
<g>
</g>
<g>
</g>
</svg>
