<?xml version="1.0" encoding="iso-8859-1"?>
<!-- Generator: Adobe Illustrator 16.0.0, SVG Export Plug-In . SVG Version: 6.00 Build 0)  -->
<!DOCTYPE svg PUBLIC "-//W3C//DTD SVG 1.1//EN" "http://www.w3.org/Graphics/SVG/1.1/DTD/svg11.dtd">
<svg version="1.1" id="Capa_1" xmlns="http://www.w3.org/2000/svg" xmlns:xlink="http://www.w3.org/1999/xlink" x="0px" y="0px"
	 width="46px" height="46px" viewBox="0 0 46 46" style="enable-background:new 0 0 46 46;" xml:space="preserve">
<g>
	<path d="M40.611,0H5.361C2.411,0,0,2.294,0,5.245v35.248C0,43.448,2.411,46,5.361,46h35.25C43.562,46,46,43.448,46,40.493V5.245
		C46,2.294,43.562,0,40.611,0z M27.771,7.349c3.816,0,6.912,3.095,6.912,6.912c0,3.817-3.096,6.911-6.912,6.911
		c-3.817,0-6.913-3.094-6.913-6.911C20.859,10.444,23.953,7.349,27.771,7.349z M39.885,37.334C39.592,37.877,39.025,38,38.409,38
		H8.207c-0.531,0-1.031-0.037-1.348-0.463c-0.317-0.428-0.413-0.871-0.259-1.381l4.321-14.241c0.285-0.94,1.079-1.61,2.049-1.771
		c0.97-0.158,1.946,0.264,2.516,1.063l6.041,8.493c0.812,1.144,2.387,1.429,3.546,0.642l5.562-3.777
		c0.572-0.389,1.276-0.528,1.953-0.393c0.68,0.135,1.273,0.539,1.652,1.118l5.576,8.435C40.152,36.242,40.18,36.793,39.885,37.334z"
		/>
</g>
<g>
</g>
<g>
</g>
<g>
</g>
<g>
</g>
<g>
</g>
<g>
</g>
<g>
</g>
<g>
</g>
<g>
</g>
<g>
</g>
<g>
</g>
<g>
</g>
<g>
</g>
<g>
</g>
<g>
</g>
</svg>
