<?xml version="1.0" encoding="iso-8859-1"?>
<!-- Generator: Adobe Illustrator 16.0.0, SVG Export Plug-In . SVG Version: 6.00 Build 0)  -->
<!DOCTYPE svg PUBLIC "-//W3C//DTD SVG 1.1//EN" "http://www.w3.org/Graphics/SVG/1.1/DTD/svg11.dtd">
<svg version="1.1" id="Capa_1" xmlns="http://www.w3.org/2000/svg" xmlns:xlink="http://www.w3.org/1999/xlink" x="0px" y="0px"
	 width="45.645px" height="45.645px" viewBox="0 0 45.645 45.645" style="enable-background:new 0 0 45.645 45.645;"
	 xml:space="preserve">
<g>
	<path d="M38.794,0H6.83C3.002,0,0,3.001,0,6.827v31.965c0,3.828,3.002,6.853,6.83,6.853h31.982c3.816,0,6.832-3.017,6.832-6.832
		V6.827C45.646,3.001,42.622,0,38.794,0z M10.75,6.592h23.909c1.101,0,1.992,0.676,1.992,1.775c0,1.101-0.892,1.774-1.992,1.774
		H10.75c-1.1,0-1.992-0.674-1.992-1.774C8.758,7.268,9.65,6.592,10.75,6.592z M10.75,13.186h23.909c1.101,0,1.992,0.929,1.992,2.028
		c0,1.102-0.892,2.028-1.992,2.028H10.75c-1.1,0-1.992-0.927-1.992-2.028C8.758,14.115,9.65,13.186,10.75,13.186z M27.895,35.732
		c0,1.942-1.782,3.319-3.724,3.319h-11.9c-1.941,0-3.648-1.377-3.648-3.319V23.834c0-1.94,1.708-3.547,3.648-3.547h11.9
		c1.941,0,3.724,1.606,3.724,3.547V35.732z M34.182,37.295c-1.481,0-2.684-1.203-2.684-2.684c0-1.482,1.202-2.686,2.684-2.686
		c1.482,0,2.685,1.202,2.685,2.686C36.866,36.092,35.664,37.295,34.182,37.295z M34.182,28.708c-1.481,0-2.684-1.203-2.684-2.687
		c0-1.482,1.202-2.683,2.684-2.683c1.482,0,2.685,1.2,2.685,2.683C36.866,27.505,35.664,28.708,34.182,28.708z"/>
</g>
<g>
</g>
<g>
</g>
<g>
</g>
<g>
</g>
<g>
</g>
<g>
</g>
<g>
</g>
<g>
</g>
<g>
</g>
<g>
</g>
<g>
</g>
<g>
</g>
<g>
</g>
<g>
</g>
<g>
</g>
</svg>
