<?xml version="1.0" encoding="iso-8859-1"?>
<!-- Generator: Adobe Illustrator 16.0.0, SVG Export Plug-In . SVG Version: 6.00 Build 0)  -->
<!DOCTYPE svg PUBLIC "-//W3C//DTD SVG 1.1//EN" "http://www.w3.org/Graphics/SVG/1.1/DTD/svg11.dtd">
<svg version="1.1" id="Capa_1" xmlns="http://www.w3.org/2000/svg" xmlns:xlink="http://www.w3.org/1999/xlink" x="0px" y="0px"
	 width="45.12px" height="45.119px" viewBox="0 0 45.12 45.119" style="enable-background:new 0 0 45.12 45.119;"
	 xml:space="preserve">
<g>
	<path d="M44.406,7.226c-1.092-2.032-3.162-3.336-5.274-3.336H5.989c-2.112,0-4.183,1.306-5.274,3.34
		c-1.046,1.947-0.937,4.391,0.281,6.229l16.572,25.068c1.124,1.694,2.989,2.703,4.992,2.703c2.019,0,3.884-0.998,4.992-2.67
		l16.572-25.01C45.338,11.717,45.453,9.177,44.406,7.226z M39.755,12.04l-8.817,13.31h-16.72L5.365,11.956
		c-0.392-0.592-0.429-1.435-0.092-2.063c0.379-0.707,1.079-1.191,1.702-1.191h31.169c0.624,0,1.324,0.483,1.701,1.188
		C40.182,10.515,40.142,11.455,39.755,12.04z"/>
</g>
<g>
</g>
<g>
</g>
<g>
</g>
<g>
</g>
<g>
</g>
<g>
</g>
<g>
</g>
<g>
</g>
<g>
</g>
<g>
</g>
<g>
</g>
<g>
</g>
<g>
</g>
<g>
</g>
<g>
</g>
</svg>
