<?xml version="1.0" encoding="iso-8859-1"?>
<!-- Generator: Adobe Illustrator 16.0.0, SVG Export Plug-In . SVG Version: 6.00 Build 0)  -->
<!DOCTYPE svg PUBLIC "-//W3C//DTD SVG 1.1//EN" "http://www.w3.org/Graphics/SVG/1.1/DTD/svg11.dtd">
<svg version="1.1" id="Capa_1" xmlns="http://www.w3.org/2000/svg" xmlns:xlink="http://www.w3.org/1999/xlink" x="0px" y="0px"
	 width="45.667px" height="45.667px" viewBox="0 0 45.667 45.667" style="enable-background:new 0 0 45.667 45.667;"
	 xml:space="preserve">
<g>
	<g>
		<path d="M44.188,37.125l-8.623-8.52c-0.869,1.396-1.903,2.705-3.098,3.896c-1.205,1.206-2.527,2.251-3.939,3.126l8.673,8.569
			c1.944,1.923,5.071,1.906,7.004-0.024c0.008-0.008,0.015-0.015,0.022-0.021C46.167,42.21,46.141,39.055,44.188,37.125z"/>
		<path d="M34.385,17.229c0-9.48-7.712-17.192-17.193-17.192c-4.739-0.001-9.037,1.928-12.15,5.041C1.929,8.191,0,12.489,0,17.229
			c0.001,9.479,7.713,17.192,17.192,17.192c4.74,0,9.039-1.928,12.151-5.042C32.457,26.266,34.385,21.969,34.385,17.229z
			 M24.659,24.695c-1.913,1.912-4.555,3.098-7.466,3.098c-5.825,0-10.564-4.738-10.564-10.564c0-2.912,1.185-5.553,3.098-7.466
			c1.912-1.913,4.554-3.097,7.467-3.098c5.823,0,10.563,4.739,10.563,10.563C27.757,20.141,26.572,22.782,24.659,24.695z"/>
	</g>
</g>
<g>
</g>
<g>
</g>
<g>
</g>
<g>
</g>
<g>
</g>
<g>
</g>
<g>
</g>
<g>
</g>
<g>
</g>
<g>
</g>
<g>
</g>
<g>
</g>
<g>
</g>
<g>
</g>
<g>
</g>
</svg>
