<?xml version="1.0" encoding="iso-8859-1"?>
<!-- Generator: Adobe Illustrator 16.0.0, SVG Export Plug-In . SVG Version: 6.00 Build 0)  -->
<!DOCTYPE svg PUBLIC "-//W3C//DTD SVG 1.1//EN" "http://www.w3.org/Graphics/SVG/1.1/DTD/svg11.dtd">
<svg version="1.1" id="Capa_1" xmlns="http://www.w3.org/2000/svg" xmlns:xlink="http://www.w3.org/1999/xlink" x="0px" y="0px"
	 width="46px" height="46px" viewBox="0 0 46 46" style="enable-background:new 0 0 46 46;" xml:space="preserve">
<g>
	<g>
		<path d="M32.294,19H13.706c-2.209,0-4,1.791-4,4s1.791,4,4,4h18.588c2.209,0,4-1.791,4-4S34.503,19,32.294,19z"/>
		<path d="M23,0C10.298,0,0,10.298,0,23c0,12.703,10.298,23,23,23s23-10.297,23-23C46,10.298,35.702,0,23,0z M23,40
			c-9.374,0-17-7.625-17-17c0-9.373,7.626-17,17-17s17,7.627,17,17C40,32.375,32.374,40,23,40z"/>
	</g>
</g>
<g>
</g>
<g>
</g>
<g>
</g>
<g>
</g>
<g>
</g>
<g>
</g>
<g>
</g>
<g>
</g>
<g>
</g>
<g>
</g>
<g>
</g>
<g>
</g>
<g>
</g>
<g>
</g>
<g>
</g>
</svg>
