<?xml version="1.0" encoding="iso-8859-1"?>
<!-- Generator: Adobe Illustrator 16.0.0, SVG Export Plug-In . SVG Version: 6.00 Build 0)  -->
<!DOCTYPE svg PUBLIC "-//W3C//DTD SVG 1.1//EN" "http://www.w3.org/Graphics/SVG/1.1/DTD/svg11.dtd">
<svg version="1.1" id="Capa_1" xmlns="http://www.w3.org/2000/svg" xmlns:xlink="http://www.w3.org/1999/xlink" x="0px" y="0px"
	 width="46.074px" height="46.074px" viewBox="0 0 46.074 46.074" style="enable-background:new 0 0 46.074 46.074;"
	 xml:space="preserve">
<g>
	<g>
		<path d="M45.265,19.146L36.06,9.943c-0.594-0.595-1.489-0.772-2.266-0.449c-0.777,0.322-1.282,1.082-1.28,1.923l0.009,3.862
			l-11.753,0.036c-1.146,0.002-2.074,0.935-2.071,2.083l0.019,7.539c0.001,0.551,0.221,1.08,0.611,1.469
			c0.391,0.389,0.92,0.605,1.471,0.605l11.753-0.035l0.01,3.859c0.002,0.843,0.512,1.599,1.289,1.918
			c0.779,0.317,1.672,0.138,2.264-0.461l9.159-9.25C46.344,21.963,46.34,20.22,45.265,19.146z"/>
		<path d="M22.265,30.935c-0.016,0.005-4.697,1.688-4.697,1.688l-6.339-18.021c0,0,4.697-1.639,4.712-1.644
			c1.192-0.419,1.16-3.601-0.072-7.104c-1.232-3.505-3.199-6.007-4.392-5.587C11.462,0.271,6.132,2.17,6.132,2.17
			C1.305,4.245-1.204,9.76,0.569,14.798l8.556,24.324c1.85,5.257,7.656,8.003,12.896,6.159c0,0,4.693-1.65,4.708-1.655
			c1.191-0.419,1.16-3.601-0.073-7.104C25.424,33.016,23.456,30.515,22.265,30.935z"/>
	</g>
</g>
<g>
</g>
<g>
</g>
<g>
</g>
<g>
</g>
<g>
</g>
<g>
</g>
<g>
</g>
<g>
</g>
<g>
</g>
<g>
</g>
<g>
</g>
<g>
</g>
<g>
</g>
<g>
</g>
<g>
</g>
</svg>
