<?xml version="1.0" encoding="iso-8859-1"?>
<!-- Generator: Adobe Illustrator 16.0.0, SVG Export Plug-In . SVG Version: 6.00 Build 0)  -->
<!DOCTYPE svg PUBLIC "-//W3C//DTD SVG 1.1//EN" "http://www.w3.org/Graphics/SVG/1.1/DTD/svg11.dtd">
<svg version="1.1" id="Capa_1" xmlns="http://www.w3.org/2000/svg" xmlns:xlink="http://www.w3.org/1999/xlink" x="0px" y="0px"
	 width="45.924px" height="45.924px" viewBox="0 0 45.924 45.924" style="enable-background:new 0 0 45.924 45.924;"
	 xml:space="preserve">
<g>
	<g>
		<path d="M34.668,15.475h-0.189v-7.65C34.479,3.512,30.813,0,26.273,0H19.65c-4.539,0-8.205,3.512-8.205,7.825v7.65h-0.19
			c-4.539,0-8.231,3.695-8.231,8.233v13.97c0,4.539,3.692,8.246,8.231,8.246h23.414c4.541,0,8.231-3.707,8.231-8.246v-13.97
			C42.899,19.17,39.208,15.475,34.668,15.475z M17.706,7.825c0-0.827,0.895-1.491,1.943-1.491h6.623c1.05,0,1.943,0.664,1.943,1.491
			v7.672h-10.51L17.706,7.825L17.706,7.825z M36.637,37.678c0,1.067-0.901,1.912-1.969,1.912H11.254
			c-1.066,0-1.969-0.845-1.969-1.912v-13.97c0-1.067,0.902-1.971,1.969-1.971h23.415c1.066,0,1.969,0.903,1.969,1.971V37.678z"/>
		<circle cx="22.961" cy="30.693" r="3.535"/>
	</g>
</g>
<g>
</g>
<g>
</g>
<g>
</g>
<g>
</g>
<g>
</g>
<g>
</g>
<g>
</g>
<g>
</g>
<g>
</g>
<g>
</g>
<g>
</g>
<g>
</g>
<g>
</g>
<g>
</g>
<g>
</g>
</svg>
