<?xml version="1.0" encoding="iso-8859-1"?>
<!-- Generator: Adobe Illustrator 16.0.0, SVG Export Plug-In . SVG Version: 6.00 Build 0)  -->
<!DOCTYPE svg PUBLIC "-//W3C//DTD SVG 1.1//EN" "http://www.w3.org/Graphics/SVG/1.1/DTD/svg11.dtd">
<svg version="1.1" id="Capa_1" xmlns="http://www.w3.org/2000/svg" xmlns:xlink="http://www.w3.org/1999/xlink" x="0px" y="0px"
	 width="45.072px" height="45.072px" viewBox="0 0 45.072 45.072" style="enable-background:new 0 0 45.072 45.072;"
	 xml:space="preserve">
<g>
	<g>
		<path d="M35.1,0H9.973C4.465,0,0,4.464,0,9.973v25.126c0,5.509,4.464,9.974,9.973,9.974H35.1c5.508,0,9.973-4.465,9.973-9.974
			V9.973C45.072,4.465,40.608,0,35.1,0z M29.021,23.613c-1.873,1.767-4.641,2.559-7.884,2.559c-0.722,0-1.377-0.034-1.868-0.109
			v7.162c0,0.861-0.698,1.559-1.559,1.559h-2.354c-0.861,0-1.559-0.697-1.559-1.559V12.141c0-0.789,0.589-1.454,1.372-1.547
			c1.552-0.186,3.524-0.31,6.061-0.31c3.386,0,5.806,0.649,7.426,1.945c1.548,1.227,2.596,3.243,2.596,5.621
			C31.254,20.227,30.463,22.246,29.021,23.613z"/>
		<path d="M21.533,14.428c-0.467,0-0.867,0.019-1.205,0.048c-0.601,0.053-1.059,0.554-1.059,1.157v5.15
			c0,0.622,0.49,1.134,1.112,1.16c0.217,0.009,0.455,0.013,0.72,0.013c2.917,0,4.719-1.478,4.719-3.963
			C25.821,15.76,24.271,14.428,21.533,14.428z"/>
	</g>
</g>
<g>
</g>
<g>
</g>
<g>
</g>
<g>
</g>
<g>
</g>
<g>
</g>
<g>
</g>
<g>
</g>
<g>
</g>
<g>
</g>
<g>
</g>
<g>
</g>
<g>
</g>
<g>
</g>
<g>
</g>
</svg>
