<?xml version="1.0" encoding="iso-8859-1"?>
<!-- Generator: Adobe Illustrator 16.0.0, SVG Export Plug-In . SVG Version: 6.00 Build 0)  -->
<!DOCTYPE svg PUBLIC "-//W3C//DTD SVG 1.1//EN" "http://www.w3.org/Graphics/SVG/1.1/DTD/svg11.dtd">
<svg version="1.1" id="Capa_1" xmlns="http://www.w3.org/2000/svg" xmlns:xlink="http://www.w3.org/1999/xlink" x="0px" y="0px"
	 width="45.964px" height="45.964px" viewBox="0 0 45.964 45.964" style="enable-background:new 0 0 45.964 45.964;"
	 xml:space="preserve">
<g>
	<g>
		<path d="M17.82,13.454c1.263,0,2.289-3.012,2.289-6.726C20.109,3.013,19.083,0,17.82,0c-0.016,0-5.675,0.022-5.675,0.022
			C6.903,0.378,2.707,4.749,2.707,10.09v25.783c0,5.572,4.566,10.091,10.122,10.091c0,0,4.975,0,4.99,0
			c1.263,0,2.289-3.011,2.289-6.728c0-3.715-1.025-6.727-2.289-6.727c-0.016,0-4.99,0.033-4.99,0.033V13.441
			C12.829,13.441,17.804,13.454,17.82,13.454z"/>
		<g>
			<path d="M26.019,42.207c9.826-1.074,17.238-9.34,17.238-19.225c0-9.884-7.41-18.147-17.238-19.225
				c-0.631-0.069-1.252,0.134-1.729,0.561c-0.474,0.426-0.733,1.035-0.733,1.671v0.16c0,1.252,0.924,2.313,2.167,2.469
				c7.231,0.903,12.678,7.08,12.678,14.364c0,7.381-5.521,13.566-12.861,14.387c-1.135,0.129-1.983,1.088-1.983,2.229v0.379
				c0,0.639,0.259,1.246,0.733,1.672C24.765,42.074,25.386,42.277,26.019,42.207z"/>
			<path d="M36.416,22.983c0-6.025-4.304-11.194-10.232-12.292c-0.657-0.122-1.314,0.054-1.83,0.48
				c-0.516,0.43-0.796,1.059-0.796,1.726v0.182c0,1.165,0.814,2.188,1.957,2.432c3.508,0.749,6.047,3.892,6.047,7.473
				c0,3.657-2.598,6.813-6.192,7.506c-1.054,0.201-1.81,1.127-1.81,2.201v0.381c0,0.67,0.282,1.299,0.795,1.726
				c0.514,0.428,1.18,0.603,1.837,0.479C32.118,34.18,36.416,29.01,36.416,22.983z"/>
		</g>
	</g>
</g>
<g>
</g>
<g>
</g>
<g>
</g>
<g>
</g>
<g>
</g>
<g>
</g>
<g>
</g>
<g>
</g>
<g>
</g>
<g>
</g>
<g>
</g>
<g>
</g>
<g>
</g>
<g>
</g>
<g>
</g>
</svg>
