<?xml version="1.0" encoding="iso-8859-1"?>
<!-- Generator: Adobe Illustrator 16.0.0, SVG Export Plug-In . SVG Version: 6.00 Build 0)  -->
<!DOCTYPE svg PUBLIC "-//W3C//DTD SVG 1.1//EN" "http://www.w3.org/Graphics/SVG/1.1/DTD/svg11.dtd">
<svg version="1.1" id="Capa_1" xmlns="http://www.w3.org/2000/svg" xmlns:xlink="http://www.w3.org/1999/xlink" x="0px" y="0px"
	 width="45.505px" height="45.505px" viewBox="0 0 45.505 45.505" style="enable-background:new 0 0 45.505 45.505;"
	 xml:space="preserve">
<g>
	<path d="M39.042,16.318C39.042,7.306,31.747,0,22.753,0C13.759,0,6.462,7.306,6.462,16.318c0,3.558,1.605,6.57,3.069,9.532
		c2.55,5.158,7.249,13.28,9.723,17.676c0.633,1.125,2.088,1.988,3.708,1.979s3.055-0.85,3.675-1.976
		c2.421-4.393,6.556-11.449,9.376-17.734C37.357,22.802,39.042,19.853,39.042,16.318z M22.752,10.978c2.949,0,5.34,2.391,5.34,5.34
		c0,2.948-2.391,5.339-5.34,5.339s-5.34-2.391-5.34-5.339C17.413,13.369,19.803,10.978,22.752,10.978z"/>
</g>
<g>
</g>
<g>
</g>
<g>
</g>
<g>
</g>
<g>
</g>
<g>
</g>
<g>
</g>
<g>
</g>
<g>
</g>
<g>
</g>
<g>
</g>
<g>
</g>
<g>
</g>
<g>
</g>
<g>
</g>
</svg>
