<?xml version="1.0" encoding="iso-8859-1"?>
<!-- Generator: Adobe Illustrator 16.0.0, SVG Export Plug-In . SVG Version: 6.00 Build 0)  -->
<!DOCTYPE svg PUBLIC "-//W3C//DTD SVG 1.1//EN" "http://www.w3.org/Graphics/SVG/1.1/DTD/svg11.dtd">
<svg version="1.1" id="Capa_1" xmlns="http://www.w3.org/2000/svg" xmlns:xlink="http://www.w3.org/1999/xlink" x="0px" y="0px"
	 width="45.682px" height="45.682px" viewBox="0 0 45.682 45.682" style="enable-background:new 0 0 45.682 45.682;"
	 xml:space="preserve">
<g>
	<path d="M36.038,16.922l7.873-7.303c1.104-1.018,1.737-2.434,1.768-3.935c0.029-1.5-0.562-2.94-1.623-4.002l-0.058-0.059
		c-1.062-1.061-2.502-1.651-4.002-1.622c-1.502,0.03-2.921,0.667-3.938,1.77l-7.302,7.873L4.57,1.321
		C3.111,0.817,1.677,1.199,1.224,2.208L0.142,4.631C-0.31,5.642,0.363,6.967,1.71,7.719l18.991,10.612l-8.547,9.216l-4.842-1.046
		c-0.527-0.114-1.059,0.169-1.259,0.671l-0.725,1.826c-0.2,0.501,0.005,1.062,0.467,1.34l5.239,3.146l1.188,1.188l3.146,5.24
		c0.278,0.461,0.844,0.659,1.346,0.461l1.821-0.723c0.503-0.199,0.785-0.729,0.672-1.255l-1.057-4.883l9.198-8.531l10.612,18.991
		c0.753,1.348,2.077,2.021,3.089,1.568l2.421-1.082c1.011-0.452,1.395-1.888,0.891-3.347L36.038,16.922z"/>
</g>
<g>
</g>
<g>
</g>
<g>
</g>
<g>
</g>
<g>
</g>
<g>
</g>
<g>
</g>
<g>
</g>
<g>
</g>
<g>
</g>
<g>
</g>
<g>
</g>
<g>
</g>
<g>
</g>
<g>
</g>
</svg>
