<?xml version="1.0" encoding="iso-8859-1"?>
<!-- Generator: Adobe Illustrator 16.0.0, SVG Export Plug-In . SVG Version: 6.00 Build 0)  -->
<!DOCTYPE svg PUBLIC "-//W3C//DTD SVG 1.1//EN" "http://www.w3.org/Graphics/SVG/1.1/DTD/svg11.dtd">
<svg version="1.1" id="Capa_1" xmlns="http://www.w3.org/2000/svg" xmlns:xlink="http://www.w3.org/1999/xlink" x="0px" y="0px"
	 width="46.001px" height="46px" viewBox="0 0 46.001 46" style="enable-background:new 0 0 46.001 46;" xml:space="preserve">
<g>
	<g>
		<path d="M20.213,11.354c-0.62-0.619-1.553-0.804-2.361-0.468c-0.81,0.336-1.336,1.128-1.334,2.004l0.05,20.233
			c0.002,0.876,0.532,1.665,1.344,1.997c0.811,0.333,1.742,0.145,2.358-0.479l9.542-9.637c1.114-1.126,1.11-2.941-0.011-4.063
			L20.213,11.354z"/>
		<path d="M46,10.178C46,4.558,41.443,0,35.822,0H10.178C4.557,0,0,4.558,0,10.178v25.646C0,41.444,4.557,46,10.178,46h25.645
			c5.621,0,10.179-4.557,10.179-10.178L46,10.178L46,10.178z M40,35.823C40,38.127,38.508,40,36.204,40H10.56
			C8.256,40,6,38.127,6,35.823V10.178C6,7.875,8.256,6,10.56,6h25.645c2.304,0,3.796,1.875,3.796,4.178L40,35.823L40,35.823z"/>
	</g>
</g>
<g>
</g>
<g>
</g>
<g>
</g>
<g>
</g>
<g>
</g>
<g>
</g>
<g>
</g>
<g>
</g>
<g>
</g>
<g>
</g>
<g>
</g>
<g>
</g>
<g>
</g>
<g>
</g>
<g>
</g>
</svg>
