<?xml version="1.0" encoding="iso-8859-1"?>
<!-- Generator: Adobe Illustrator 16.0.0, SVG Export Plug-In . SVG Version: 6.00 Build 0)  -->
<!DOCTYPE svg PUBLIC "-//W3C//DTD SVG 1.1//EN" "http://www.w3.org/Graphics/SVG/1.1/DTD/svg11.dtd">
<svg version="1.1" id="Capa_1" xmlns="http://www.w3.org/2000/svg" xmlns:xlink="http://www.w3.org/1999/xlink" x="0px" y="0px"
	 width="45.645px" height="45.645px" viewBox="0 0 45.645 45.645" style="enable-background:new 0 0 45.645 45.645;"
	 xml:space="preserve">
<g>
	<g>
		<path d="M22.831,33.622c8.139,0,14.764-6.622,14.764-14.759c0-5.806-3.349-10.839-8.256-13.248v5.98
			c1.979,1.787,3.248,4.383,3.248,7.268c0,5.379-4.382,9.756-9.762,9.756c-5.379,0-9.739-4.377-9.739-9.756
			c0-2.884,1.211-5.479,3.269-7.267v-5.98c-4.908,2.408-8.273,7.441-8.273,13.247C8.081,27.001,14.694,33.622,22.831,33.622z"/>
		<path d="M22.807,21.009c1.381,0,2.493-1.12,2.493-2.501V2.501C25.3,1.12,24.188,0,22.807,0c-1.382,0-2.494,1.12-2.494,2.501
			v16.007C20.313,19.89,21.426,21.009,22.807,21.009z"/>
		<circle cx="22.823" cy="41.144" r="4.501"/>
		<circle cx="9.816" cy="41.144" r="4.501"/>
		<circle cx="35.828" cy="41.144" r="4.501"/>
	</g>
</g>
<g>
</g>
<g>
</g>
<g>
</g>
<g>
</g>
<g>
</g>
<g>
</g>
<g>
</g>
<g>
</g>
<g>
</g>
<g>
</g>
<g>
</g>
<g>
</g>
<g>
</g>
<g>
</g>
<g>
</g>
</svg>
