<?xml version="1.0" encoding="iso-8859-1"?>
<!-- Generator: Adobe Illustrator 16.0.0, SVG Export Plug-In . SVG Version: 6.00 Build 0)  -->
<!DOCTYPE svg PUBLIC "-//W3C//DTD SVG 1.1//EN" "http://www.w3.org/Graphics/SVG/1.1/DTD/svg11.dtd">
<svg version="1.1" id="Capa_1" xmlns="http://www.w3.org/2000/svg" xmlns:xlink="http://www.w3.org/1999/xlink" x="0px" y="0px"
	 width="45.795px" height="45.794px" viewBox="0 0 45.795 45.794" style="enable-background:new 0 0 45.795 45.794;"
	 xml:space="preserve">
<g>
	<g>
		<path d="M42.158,9.627h-6.252v1.194c0,3.077-2.495,5.57-5.571,5.57H14.678c-3.077,0-5.571-2.493-5.571-5.57V9.627H3.615
			C1.637,9.627,0,11.286,0,13.265v14.213c0,2.245,1.852,4.006,4.097,4.006h5.01v0.061v7.117c0,3.072,2.438,5.571,5.511,5.571h16.681
			c3.072,0,5.52-2.499,5.52-5.571v-7.117v-0.061h5.342c1.979,0,3.635-1.546,3.635-3.523V13.265
			C45.793,11.286,44.139,9.627,42.158,9.627z M32.913,38.604c0,0.881-0.715,1.596-1.597,1.596H14.605
			c-0.882,0-1.597-0.715-1.597-1.596V25.923c0-0.881,0.715-1.596,1.597-1.596h16.711c0.882,0,1.597,0.715,1.597,1.596V38.604z"/>
		<path d="M14.605,12.49h15.67c0.883,0,1.598-0.715,1.598-1.597V3.159c0-0.882-0.715-1.597-1.598-1.597h-15.67
			c-0.882,0-1.597,0.715-1.597,1.597v7.734C13.009,11.775,13.724,12.49,14.605,12.49z"/>
	</g>
</g>
<g>
</g>
<g>
</g>
<g>
</g>
<g>
</g>
<g>
</g>
<g>
</g>
<g>
</g>
<g>
</g>
<g>
</g>
<g>
</g>
<g>
</g>
<g>
</g>
<g>
</g>
<g>
</g>
<g>
</g>
</svg>
