<?xml version="1.0" encoding="iso-8859-1"?>
<!-- Generator: Adobe Illustrator 16.0.0, SVG Export Plug-In . SVG Version: 6.00 Build 0)  -->
<!DOCTYPE svg PUBLIC "-//W3C//DTD SVG 1.1//EN" "http://www.w3.org/Graphics/SVG/1.1/DTD/svg11.dtd">
<svg version="1.1" id="Capa_1" xmlns="http://www.w3.org/2000/svg" xmlns:xlink="http://www.w3.org/1999/xlink" x="0px" y="0px"
	 width="46px" height="46px" viewBox="0 0 46 46" style="enable-background:new 0 0 46 46;" xml:space="preserve">
<g>
	<path d="M23,0C10.298,0,0,10.297,0,23s10.298,23,23,23s23-10.297,23-23S35.702,0,23,0z M40,23c0,2.855-0.716,5.545-1.965,7.91
		L17.129,7.066C18.962,6.388,20.935,6,23,6C32.374,6,40,13.626,40,23z M6,23c0-2.925,0.743-5.68,2.049-8.085l21.003,23.952
		C27.168,39.588,25.134,40,23,40C13.626,40,6,32.374,6,23z"/>
</g>
<g>
</g>
<g>
</g>
<g>
</g>
<g>
</g>
<g>
</g>
<g>
</g>
<g>
</g>
<g>
</g>
<g>
</g>
<g>
</g>
<g>
</g>
<g>
</g>
<g>
</g>
<g>
</g>
<g>
</g>
</svg>
