<?xml version="1.0" encoding="iso-8859-1"?>
<!-- Generator: Adobe Illustrator 16.0.0, SVG Export Plug-In . SVG Version: 6.00 Build 0)  -->
<!DOCTYPE svg PUBLIC "-//W3C//DTD SVG 1.1//EN" "http://www.w3.org/Graphics/SVG/1.1/DTD/svg11.dtd">
<svg version="1.1" id="Capa_1" xmlns="http://www.w3.org/2000/svg" xmlns:xlink="http://www.w3.org/1999/xlink" x="0px" y="0px"
	 width="45.579px" height="45.579px" viewBox="0 0 45.579 45.579" style="enable-background:new 0 0 45.579 45.579;"
	 xml:space="preserve">
<g>
	<path d="M44.514,23.82c-0.746-0.898-1.843-1.416-3.01-1.416c-2.132,0-3.945,1.457-4.406,3.541
		c-1.463,6.574-7.41,11.35-14.142,11.35c-7.998,0-14.506-6.506-14.506-14.505c0-8,6.508-14.506,14.506-14.506
		c2.633,0,5.16,0.704,7.399,2.052l-1.221,1.237c-0.361,0.366-0.467,0.916-0.267,1.391c0.202,0.476,0.669,0.781,1.185,0.776
		l7.954,0.004c0.933-0.008,1.707-0.845,1.703-1.762l-0.032-7.979c-0.002-0.529-0.314-0.994-0.793-1.189
		c-0.479-0.193-1.025-0.081-1.388,0.285l-1.205,1.223C32.423,1.525,27.739,0,22.955,0C10.39,0,0.166,10.224,0.166,22.79
		c0,12.565,10.224,22.789,22.79,22.789c10.937,0,20.351-7.796,22.388-18.535C45.562,25.896,45.26,24.722,44.514,23.82z"/>
</g>
<g>
</g>
<g>
</g>
<g>
</g>
<g>
</g>
<g>
</g>
<g>
</g>
<g>
</g>
<g>
</g>
<g>
</g>
<g>
</g>
<g>
</g>
<g>
</g>
<g>
</g>
<g>
</g>
<g>
</g>
</svg>
