<?xml version="1.0" encoding="iso-8859-1"?>
<!-- Generator: Adobe Illustrator 16.0.0, SVG Export Plug-In . SVG Version: 6.00 Build 0)  -->
<!DOCTYPE svg PUBLIC "-//W3C//DTD SVG 1.1//EN" "http://www.w3.org/Graphics/SVG/1.1/DTD/svg11.dtd">
<svg version="1.1" id="Capa_1" xmlns="http://www.w3.org/2000/svg" xmlns:xlink="http://www.w3.org/1999/xlink" x="0px" y="0px"
	 width="46.169px" height="46.169px" viewBox="0 0 46.169 46.169" style="enable-background:new 0 0 46.169 46.169;"
	 xml:space="preserve">
<g>
	<path d="M37.812,2.183c0-1.218-0.94-2.183-2.158-2.183H10.473C9.254,0,8.357,0.965,8.357,2.183v43.986h9.608v-7.267
		c0-0.715,0.517-1.299,1.229-1.299h7.771c0.713,0,1.238,0.584,1.238,1.299v7.267h9.607V2.183H37.812z M21.308,31.209
		c0,0.417-0.337,0.755-0.755,0.755h-4.549c-0.416,0-0.755-0.338-0.755-0.755V26.66c0-0.417,0.339-0.756,0.755-0.756h4.549
		c0.418,0,0.755,0.339,0.755,0.756V31.209z M21.308,21.18c0,0.417-0.337,0.755-0.755,0.755h-4.549c-0.416,0-0.755-0.338-0.755-0.755
		v-4.549c0-0.417,0.339-0.755,0.755-0.755h4.549c0.418,0,0.755,0.338,0.755,0.755V21.18z M21.308,10.944
		c0,0.417-0.337,0.755-0.755,0.755h-4.549c-0.416,0-0.755-0.338-0.755-0.755V6.395c0-0.417,0.339-0.755,0.755-0.755h4.549
		c0.418,0,0.755,0.338,0.755,0.755V10.944z M30.919,31.209c0,0.417-0.34,0.755-0.756,0.755h-4.549c-0.418,0-0.755-0.338-0.755-0.755
		V26.66c0-0.417,0.337-0.756,0.755-0.756h4.549c0.416,0,0.756,0.339,0.756,0.756V31.209z M30.919,21.18
		c0,0.417-0.34,0.755-0.756,0.755h-4.549c-0.418,0-0.755-0.338-0.755-0.755v-4.549c0-0.417,0.337-0.755,0.755-0.755h4.549
		c0.416,0,0.756,0.338,0.756,0.755V21.18z M30.919,10.944c0,0.417-0.34,0.755-0.756,0.755h-4.549c-0.418,0-0.755-0.338-0.755-0.755
		V6.395c0-0.417,0.337-0.755,0.755-0.755h4.549c0.416,0,0.756,0.338,0.756,0.755V10.944z"/>
</g>
<g>
</g>
<g>
</g>
<g>
</g>
<g>
</g>
<g>
</g>
<g>
</g>
<g>
</g>
<g>
</g>
<g>
</g>
<g>
</g>
<g>
</g>
<g>
</g>
<g>
</g>
<g>
</g>
<g>
</g>
</svg>
