<?xml version="1.0" encoding="iso-8859-1"?>
<!-- Generator: Adobe Illustrator 16.0.0, SVG Export Plug-In . SVG Version: 6.00 Build 0)  -->
<!DOCTYPE svg PUBLIC "-//W3C//DTD SVG 1.1//EN" "http://www.w3.org/Graphics/SVG/1.1/DTD/svg11.dtd">
<svg version="1.1" id="Capa_1" xmlns="http://www.w3.org/2000/svg" xmlns:xlink="http://www.w3.org/1999/xlink" x="0px" y="0px"
	 width="45.771px" height="45.772px" viewBox="0 0 45.771 45.772" style="enable-background:new 0 0 45.771 45.772;"
	 xml:space="preserve">
<g>
	<g>
		<path d="M18.982,4.75c-1.217-0.502-2.504-0.222-3.433,0.711L1.245,19.892c-1.678,1.686-1.65,4.411,0.028,6.098l14.374,14.433
			c0.929,0.932,2.113,1.213,3.33,0.71c1.215-0.502,1.795-1.688,1.795-3.003V7.753C20.771,6.438,20.2,5.25,18.982,4.75z"/>
		<path d="M43.876,4.64c-1.216-0.502-2.558-0.222-3.486,0.711L26.058,19.783c-1.677,1.686-1.663,4.41,0.015,6.098l14.367,14.431
			c0.93,0.932,2.217,1.213,3.435,0.711c1.215-0.503,1.897-1.688,1.897-3.004V7.644C45.771,6.327,45.093,5.142,43.876,4.64z"/>
	</g>
</g>
<g>
</g>
<g>
</g>
<g>
</g>
<g>
</g>
<g>
</g>
<g>
</g>
<g>
</g>
<g>
</g>
<g>
</g>
<g>
</g>
<g>
</g>
<g>
</g>
<g>
</g>
<g>
</g>
<g>
</g>
</svg>
