<?xml version="1.0" encoding="iso-8859-1"?>
<!-- Generator: Adobe Illustrator 16.0.0, SVG Export Plug-In . SVG Version: 6.00 Build 0)  -->
<!DOCTYPE svg PUBLIC "-//W3C//DTD SVG 1.1//EN" "http://www.w3.org/Graphics/SVG/1.1/DTD/svg11.dtd">
<svg version="1.1" id="Capa_1" xmlns="http://www.w3.org/2000/svg" xmlns:xlink="http://www.w3.org/1999/xlink" x="0px" y="0px"
	 width="45.887px" height="45.887px" viewBox="0 0 45.887 45.887" style="enable-background:new 0 0 45.887 45.887;"
	 xml:space="preserve">
<g>
	<g>
		<path d="M26.509,41.298c0-1.967-1.6-3.553-3.566-3.553c-1.966,0-3.566,1.578-3.566,3.546c0,0.028,0.001,0.063,0.001,0.063h7.13
			C26.507,41.354,26.509,41.327,26.509,41.298z"/>
		<path d="M45.887,35.351l-0.085-24.796c-0.012-3.326-2.711-6.046-6.036-6.046H6.037c-1.605,0-3.145,0.668-4.276,1.806
			C0.628,7.45-0.006,9.007,0,10.611l0.083,24.773c0.011,3.096,2.349,5.643,5.353,5.98c0-0.014,0-0.026,0-0.041
			c0-9.653,7.854-17.508,17.507-17.508c9.654,0,17.507,7.854,17.507,17.51c0,0.017,0,0.035,0,0.053
			c1.384-0.139,2.685-0.752,3.675-1.746C45.257,38.495,45.892,36.956,45.887,35.351z"/>
		<path d="M14.397,41.298c0-4.712,3.833-8.531,8.545-8.531c4.712,0,8.545,3.812,8.545,8.524c0,0.028-0.002,0.063-0.002,0.063h3.984
			c0,0,0.001-0.027,0.001-0.057c0-6.909-5.62-12.516-12.529-12.516c-6.908,0-12.529,5.601-12.529,12.509
			c0,0.028,0.001,0.063,0.001,0.063h3.985C14.399,41.354,14.397,41.327,14.397,41.298z"/>
	</g>
</g>
<g>
</g>
<g>
</g>
<g>
</g>
<g>
</g>
<g>
</g>
<g>
</g>
<g>
</g>
<g>
</g>
<g>
</g>
<g>
</g>
<g>
</g>
<g>
</g>
<g>
</g>
<g>
</g>
<g>
</g>
</svg>
