<?xml version="1.0" encoding="iso-8859-1"?>
<!-- Generator: Adobe Illustrator 16.0.0, SVG Export Plug-In . SVG Version: 6.00 Build 0)  -->
<!DOCTYPE svg PUBLIC "-//W3C//DTD SVG 1.1//EN" "http://www.w3.org/Graphics/SVG/1.1/DTD/svg11.dtd">
<svg version="1.1" id="Capa_1" xmlns="http://www.w3.org/2000/svg" xmlns:xlink="http://www.w3.org/1999/xlink" x="0px" y="0px"
	 width="46.116px" height="46.117px" viewBox="0 0 46.116 46.117" style="enable-background:new 0 0 46.116 46.117;"
	 xml:space="preserve">
<g>
	<path d="M37.689,2.906H8.427C3.78,2.906,0,6.651,0,11.297v17.119c0,4.646,3.78,8.377,8.427,8.377h18.927l3.608,5.191
		c0.53,0.76,1.397,1.225,2.326,1.227c0.927,0.002,1.797-0.443,2.331-1.201l3.777-5.354c3.832-0.785,6.72-4.175,6.72-8.239V11.297
		C46.116,6.651,42.336,2.906,37.689,2.906z M30.137,28.526H15.979c-1.107,0-2.004-0.933-2.004-2.039s0.897-2.037,2.004-2.037h14.16
		c1.106,0,2.004,0.931,2.004,2.037C32.141,27.593,31.244,28.526,30.137,28.526z M30.137,21.887H15.979
		c-1.107,0-2.004-0.932-2.004-2.038c0-1.105,0.897-2.038,2.004-2.038h14.16c1.106,0,2.004,0.933,2.004,2.038
		C32.141,20.955,31.244,21.887,30.137,21.887z M30.137,15.249H15.979c-1.107,0-2.004-0.931-2.004-2.037
		c0-1.107,0.897-2.039,2.004-2.039h14.16c1.106,0,2.004,0.932,2.004,2.039C32.141,14.319,31.244,15.249,30.137,15.249z"/>
</g>
<g>
</g>
<g>
</g>
<g>
</g>
<g>
</g>
<g>
</g>
<g>
</g>
<g>
</g>
<g>
</g>
<g>
</g>
<g>
</g>
<g>
</g>
<g>
</g>
<g>
</g>
<g>
</g>
<g>
</g>
</svg>
