<?xml version="1.0" encoding="iso-8859-1"?>
<!-- Generator: Adobe Illustrator 16.0.0, SVG Export Plug-In . SVG Version: 6.00 Build 0)  -->
<!DOCTYPE svg PUBLIC "-//W3C//DTD SVG 1.1//EN" "http://www.w3.org/Graphics/SVG/1.1/DTD/svg11.dtd">
<svg version="1.1" id="Capa_1" xmlns="http://www.w3.org/2000/svg" xmlns:xlink="http://www.w3.org/1999/xlink" x="0px" y="0px"
	 width="46.327px" height="46.328px" viewBox="0 0 46.327 46.328" style="enable-background:new 0 0 46.327 46.328;"
	 xml:space="preserve">
<g>
	<path d="M2.06,27.544h0.826v11.119c0,0.979,0.792,1.77,1.77,1.77h0.98c0.978,0,1.77-0.791,1.77-1.77v-9.058
		c0-0.466,0.186-0.914,0.517-1.242s0.78-0.511,1.246-0.508l4.137,0.032c0.961,0.007,1.736,0.789,1.736,1.75v9.025
		c0,0.979,0.792,1.77,1.77,1.77h24.854c0.977,0,1.77-0.791,1.77-1.769c0.002-3.532,0.004-11.12,0.004-11.12h0.824
		c0.632,0,1.229-0.281,1.619-0.777c0.392-0.494,0.534-1.133,0.389-1.746l-3.522-14.804c-0.603-2.529-2.863-4.323-5.463-4.323H9.042
		c-2.601,0-4.861,1.793-5.463,4.323l-3.522,14.8c-0.146,0.613-0.003,1.254,0.388,1.748C0.834,27.261,1.43,27.544,2.06,27.544z
		 M20.106,28.884c0-0.74,0.6-1.34,1.34-1.34h14.603c0.74,0,1.339,0.601,1.339,1.34v5.307c0,0.74-0.6,1.339-1.339,1.339H21.446
		c-0.74,0-1.34-0.601-1.34-1.339V28.884z"/>
</g>
<g>
</g>
<g>
</g>
<g>
</g>
<g>
</g>
<g>
</g>
<g>
</g>
<g>
</g>
<g>
</g>
<g>
</g>
<g>
</g>
<g>
</g>
<g>
</g>
<g>
</g>
<g>
</g>
<g>
</g>
</svg>
