<?xml version="1.0" encoding="iso-8859-1"?>
<!-- Generator: Adobe Illustrator 16.0.0, SVG Export Plug-In . SVG Version: 6.00 Build 0)  -->
<!DOCTYPE svg PUBLIC "-//W3C//DTD SVG 1.1//EN" "http://www.w3.org/Graphics/SVG/1.1/DTD/svg11.dtd">
<svg version="1.1" id="Capa_1" xmlns="http://www.w3.org/2000/svg" xmlns:xlink="http://www.w3.org/1999/xlink" x="0px" y="0px"
	 width="45.572px" height="45.572px" viewBox="0 0 45.572 45.572" style="enable-background:new 0 0 45.572 45.572;"
	 xml:space="preserve">
<g>
	<path d="M32.691,0H12.88C9.857,0,7.406,2.45,7.406,5.474v34.624c0,3.022,2.45,5.475,5.474,5.475h19.812
		c3.022,0,5.474-2.451,5.474-5.475V5.474C38.165,2.451,35.715,0,32.691,0z M26.653,40.828c0,0.535-0.435,0.97-0.97,0.97h-5.985
		c-0.535,0-0.97-0.435-0.97-0.97v-0.041c0-0.536,0.435-0.971,0.97-0.971h5.985c0.535,0,0.97,0.435,0.97,0.971V40.828z
		 M32.786,33.984c0,1.084-0.879,1.963-1.964,1.963H14.654c-1.084,0-1.964-0.879-1.964-1.963V8.098c0-1.086,0.88-1.965,1.964-1.965
		h16.168c1.085,0,1.964,0.879,1.964,1.965V33.984z"/>
</g>
<g>
</g>
<g>
</g>
<g>
</g>
<g>
</g>
<g>
</g>
<g>
</g>
<g>
</g>
<g>
</g>
<g>
</g>
<g>
</g>
<g>
</g>
<g>
</g>
<g>
</g>
<g>
</g>
<g>
</g>
</svg>
