<?xml version="1.0" encoding="iso-8859-1"?>
<!-- Generator: Adobe Illustrator 16.0.0, SVG Export Plug-In . SVG Version: 6.00 Build 0)  -->
<!DOCTYPE svg PUBLIC "-//W3C//DTD SVG 1.1//EN" "http://www.w3.org/Graphics/SVG/1.1/DTD/svg11.dtd">
<svg version="1.1" id="Capa_1" xmlns="http://www.w3.org/2000/svg" xmlns:xlink="http://www.w3.org/1999/xlink" x="0px" y="0px"
	 width="44.776px" height="44.776px" viewBox="0 0 44.776 44.776" style="enable-background:new 0 0 44.776 44.776;"
	 xml:space="preserve">
<g>
	<g>
		<g>
			<path d="M39.776,12.766H5c-2.761,0-5-2.239-5-5s2.239-5,5-5h34.776c2.761,0,5,2.239,5,5S42.537,12.766,39.776,12.766z"/>
		</g>
		<g>
			<path d="M39.776,27.388H5c-2.761,0-5-2.239-5-5c0-2.762,2.239-5,5-5h34.776c2.761,0,5,2.238,5,5
				C44.776,25.149,42.537,27.388,39.776,27.388z"/>
		</g>
		<g>
			<path d="M39.776,42.01H5c-2.761,0-5-2.239-5-5c0-2.762,2.239-5,5-5h34.776c2.761,0,5,2.238,5,5
				C44.776,39.771,42.537,42.01,39.776,42.01z"/>
		</g>
	</g>
</g>
<g>
</g>
<g>
</g>
<g>
</g>
<g>
</g>
<g>
</g>
<g>
</g>
<g>
</g>
<g>
</g>
<g>
</g>
<g>
</g>
<g>
</g>
<g>
</g>
<g>
</g>
<g>
</g>
<g>
</g>
</svg>
