<?xml version="1.0" encoding="iso-8859-1"?>
<!-- Generator: Adobe Illustrator 16.0.0, SVG Export Plug-In . SVG Version: 6.00 Build 0)  -->
<!DOCTYPE svg PUBLIC "-//W3C//DTD SVG 1.1//EN" "http://www.w3.org/Graphics/SVG/1.1/DTD/svg11.dtd">
<svg version="1.1" id="Capa_1" xmlns="http://www.w3.org/2000/svg" xmlns:xlink="http://www.w3.org/1999/xlink" x="0px" y="0px"
	 width="46.234px" height="46.234px" viewBox="0 0 46.234 46.234" style="enable-background:new 0 0 46.234 46.234;"
	 xml:space="preserve">
<g>
	<g>
		<path d="M8.36,43.021c0,1.773,1.437,3.213,3.211,3.213h23.094c1.775,0,3.209-1.438,3.209-3.213V15.747H8.36V43.021z"/>
		<path d="M37.313,3.333h-8.961C27.431,1.325,25.435,0,23.119,0c-2.317,0-4.312,1.325-5.234,3.333H8.924
			c-1.774,0-3.241,1.423-3.241,3.198V9.78c0,1.774,1.467,3.229,3.241,3.229h28.389c1.775,0,3.238-1.455,3.238-3.229V6.531
			C40.551,4.756,39.088,3.333,37.313,3.333z"/>
	</g>
</g>
<g>
</g>
<g>
</g>
<g>
</g>
<g>
</g>
<g>
</g>
<g>
</g>
<g>
</g>
<g>
</g>
<g>
</g>
<g>
</g>
<g>
</g>
<g>
</g>
<g>
</g>
<g>
</g>
<g>
</g>
</svg>
