<?xml version="1.0" encoding="iso-8859-1"?>
<!-- Generator: Adobe Illustrator 16.0.0, SVG Export Plug-In . SVG Version: 6.00 Build 0)  -->
<!DOCTYPE svg PUBLIC "-//W3C//DTD SVG 1.1//EN" "http://www.w3.org/Graphics/SVG/1.1/DTD/svg11.dtd">
<svg version="1.1" id="Capa_1" xmlns="http://www.w3.org/2000/svg" xmlns:xlink="http://www.w3.org/1999/xlink" x="0px" y="0px"
	 width="45.58px" height="45.58px" viewBox="0 0 45.58 45.58" style="enable-background:new 0 0 45.58 45.58;" xml:space="preserve"
	>
<g>
	<path d="M0.074,33.532c1.741-7.42,7.161-17.758,23.554-19.942V7.047c0-1.364,0.827-2.593,2.087-3.113s2.712-0.229,3.675,0.737
		L44.275,19.63c1.739,1.748,1.74,4.572,0.001,6.32L29.39,40.909c-0.961,0.966-2.415,1.258-3.676,0.737
		c-1.261-0.521-2.087-1.75-2.087-3.113v-6.331c-5.593,0.007-13.657,0.743-19.392,4.313c-0.953,0.594-2.168,0.555-3.08-0.101
		C0.245,35.762-0.184,34.624,0.074,33.532z"/>
</g>
<g>
</g>
<g>
</g>
<g>
</g>
<g>
</g>
<g>
</g>
<g>
</g>
<g>
</g>
<g>
</g>
<g>
</g>
<g>
</g>
<g>
</g>
<g>
</g>
<g>
</g>
<g>
</g>
<g>
</g>
</svg>
