<?xml version="1.0" encoding="iso-8859-1"?>
<!-- Generator: Adobe Illustrator 16.0.0, SVG Export Plug-In . SVG Version: 6.00 Build 0)  -->
<!DOCTYPE svg PUBLIC "-//W3C//DTD SVG 1.1//EN" "http://www.w3.org/Graphics/SVG/1.1/DTD/svg11.dtd">
<svg version="1.1" id="Capa_1" xmlns="http://www.w3.org/2000/svg" xmlns:xlink="http://www.w3.org/1999/xlink" x="0px" y="0px"
	 width="43.329px" height="43.329px" viewBox="0 0 43.329 43.329" style="enable-background:new 0 0 43.329 43.329;"
	 xml:space="preserve">
<g>
	<g>
		<path d="M24.64,1.229c-1.646-1.639-4.306-1.639-5.951,0L4.605,15.243c-0.91,0.906-1.185,2.287-0.695,3.474
			c0.49,1.187,1.647,1.976,2.932,1.976h5.878v7.697c0,1.752,1.437,3.197,3.188,3.197h11.511c1.752,0,3.208-1.445,3.208-3.197v-7.697
			h5.858c1.283,0,2.441-0.79,2.931-1.976c0.49-1.187,0.216-2.561-0.694-3.466L24.64,1.229z"/>
		<path d="M42.657,37.547c0-1.75-1.419-3.17-3.172-3.17H3.842c-1.751,0-3.171,1.418-3.171,3.17v2.611
			c0,1.751,1.42,3.171,3.171,3.171h35.645c1.751,0,3.171-1.42,3.171-3.171L42.657,37.547L42.657,37.547z"/>
	</g>
</g>
<g>
</g>
<g>
</g>
<g>
</g>
<g>
</g>
<g>
</g>
<g>
</g>
<g>
</g>
<g>
</g>
<g>
</g>
<g>
</g>
<g>
</g>
<g>
</g>
<g>
</g>
<g>
</g>
<g>
</g>
</svg>
