<?xml version="1.0" encoding="iso-8859-1"?>
<!-- Generator: Adobe Illustrator 16.0.0, SVG Export Plug-In . SVG Version: 6.00 Build 0)  -->
<!DOCTYPE svg PUBLIC "-//W3C//DTD SVG 1.1//EN" "http://www.w3.org/Graphics/SVG/1.1/DTD/svg11.dtd">
<svg version="1.1" id="Capa_1" xmlns="http://www.w3.org/2000/svg" xmlns:xlink="http://www.w3.org/1999/xlink" x="0px" y="0px"
	 width="45.683px" height="45.683px" viewBox="0 0 45.683 45.683" style="enable-background:new 0 0 45.683 45.683;"
	 xml:space="preserve">
<g>
	<path d="M45.612,8.336c-0.015-4.589-3.738-8.289-8.327-8.289H8.327c-2.213,0-4.335,0.869-5.897,2.437
		C0.867,4.051-0.007,6.17,0,8.383l0.071,22.163c0.014,4.588,3.738,8.286,8.327,8.286h8.208l3.906,5.601
		c0.525,0.753,1.384,1.201,2.301,1.203c0.917,0.003,1.778-0.442,2.307-1.194l3.949-5.608h8.286c2.213,0,4.335-0.869,5.896-2.437
		c1.563-1.568,2.438-3.682,2.431-5.895L45.612,8.336z M22.84,4.987c4.29,0,7.768,3.478,7.768,7.766c0,4.291-3.479,7.767-7.768,7.767
		s-7.766-3.476-7.766-7.767C15.075,8.465,18.552,4.987,22.84,4.987z M35.21,32.133c0,0.958-0.776,1.734-1.734,1.734H12.201
		c-0.959,0-1.736-0.776-1.736-1.735c0-4.349,3.507-7.883,7.856-7.883h9.041c2.089,0,4.079,0.835,5.556,2.312
		S35.21,30.046,35.21,32.133L35.21,32.133z"/>
</g>
<g>
</g>
<g>
</g>
<g>
</g>
<g>
</g>
<g>
</g>
<g>
</g>
<g>
</g>
<g>
</g>
<g>
</g>
<g>
</g>
<g>
</g>
<g>
</g>
<g>
</g>
<g>
</g>
<g>
</g>
</svg>
