<?xml version="1.0" encoding="iso-8859-1"?>
<!-- Generator: Adobe Illustrator 16.0.0, SVG Export Plug-In . SVG Version: 6.00 Build 0)  -->
<!DOCTYPE svg PUBLIC "-//W3C//DTD SVG 1.1//EN" "http://www.w3.org/Graphics/SVG/1.1/DTD/svg11.dtd">
<svg version="1.1" id="Capa_1" xmlns="http://www.w3.org/2000/svg" xmlns:xlink="http://www.w3.org/1999/xlink" x="0px" y="0px"
	 width="46.109px" height="46.109px" viewBox="0 0 46.109 46.109" style="enable-background:new 0 0 46.109 46.109;"
	 xml:space="preserve">
<g>
	<g>
		<path d="M32.174,36.67c-1.074,0.975-2.543,1.389-3.97,1.121c-3.554-0.669-10.284-2.167-8.864-3.722
			c2.201-2.412-1.151-4.089-4.61-2.935c-3.46,1.152-2.622-2.938-3.46-6.396c-0.838-3.46,0.419-4.508-1.153-6.078
			c-1.256-1.254-1.359-1.147-2.077-1.603c-0.499-0.316-0.842-0.829-0.944-1.411c-0.104-0.583,0.045-1.182,0.405-1.65
			c0.422-0.548,0.861-1.09,1.016-1.266c1.669-1.896,5.99-3.245,6.128,1.702c0.088,3.157,4.715,4.437,6.226,6.323
			c1.511,1.886,4.133,2.934,3.922,5.555c-0.209,2.621,3.773,3.25,3.564-0.629c0,0,0,0,0-0.002c-0.035-0.66-0.305-1.283-0.758-1.766
			c-0.825-0.872-1.321-2.051-1.321-3.346v-9.48c0-1.417,0.858-2.904,1.562-3.584c0.635-0.613,1.998-1.338,3.262-1.338h0.474
			c-3.131-1.826-6.793-2.93-10.703-2.93C9.362,3.236,0,12.615,0,24.127c0,11.51,9.362,20.902,20.872,20.902
			c11.078,0,20.166-8.723,20.834-19.553H37.69C37.35,29.855,35.289,33.842,32.174,36.67z"/>
		<path d="M44.254,9.17h-1.668v-3.3c0-2.623-2.074-4.79-4.697-4.79h-0.502c-2.623,0-4.717,2.167-4.717,4.79v3.3h-1.537
			c-1.024,0-1.854,0.83-1.854,1.854v9.467c0,1.025,0.83,1.856,1.854,1.856h13.121c1.025,0,1.855-0.831,1.855-1.856v-9.467
			C46.109,10,45.279,9.17,44.254,9.17z M39.586,9.17h-3.914v-3.3c0-0.967,0.75-1.79,1.715-1.79h0.502
			c0.967,0,1.697,0.823,1.697,1.79V9.17z"/>
	</g>
</g>
<g>
</g>
<g>
</g>
<g>
</g>
<g>
</g>
<g>
</g>
<g>
</g>
<g>
</g>
<g>
</g>
<g>
</g>
<g>
</g>
<g>
</g>
<g>
</g>
<g>
</g>
<g>
</g>
<g>
</g>
</svg>
