<?xml version="1.0" encoding="iso-8859-1"?>
<!-- Generator: Adobe Illustrator 16.0.0, SVG Export Plug-In . SVG Version: 6.00 Build 0)  -->
<!DOCTYPE svg PUBLIC "-//W3C//DTD SVG 1.1//EN" "http://www.w3.org/Graphics/SVG/1.1/DTD/svg11.dtd">
<svg version="1.1" id="Capa_1" xmlns="http://www.w3.org/2000/svg" xmlns:xlink="http://www.w3.org/1999/xlink" x="0px" y="0px"
	 width="45.478px" height="45.478px" viewBox="0 0 45.478 45.478" style="enable-background:new 0 0 45.478 45.478;"
	 xml:space="preserve">
<g>
	<g>
		<path d="M45.462,27.982C44.192,16.367,34.424,7.607,22.739,7.607c-11.683,0-21.45,8.759-22.723,20.374
			c-0.082,0.747,0.158,1.479,0.662,2.044c0.503,0.561,1.224,0.867,1.975,0.867h0.189c1.479,0,2.733-1.092,2.918-2.562
			c1.068-8.546,8.368-14.982,16.979-14.982c8.725,0,16.036,6.527,17.007,15.201c0.15,1.342,1.283,2.344,2.633,2.344h0.447
			c0.753,0,1.473-0.307,1.976-0.867C45.304,29.464,45.545,28.73,45.462,27.982z"/>
		<path d="M22.739,15.693c-7.122,0-13.231,5.087-14.529,12.096c-0.144,0.775,0.063,1.553,0.568,2.162
			c0.508,0.608,1.251,0.941,2.039,0.941h0.215c1.378,0,2.587-0.963,2.874-2.312c0.886-4.146,4.601-7.146,8.833-7.146
			c4.322,0,8.053,3.07,8.871,7.318c0.238,1.246,1.332,2.141,2.603,2.141h0.452c0.791,0,1.535-0.333,2.038-0.941
			c0.506-0.605,0.712-1.394,0.567-2.17C35.974,20.773,29.862,15.693,22.739,15.693z"/>
		<circle cx="22.74" cy="31.682" r="6.188"/>
	</g>
</g>
<g>
</g>
<g>
</g>
<g>
</g>
<g>
</g>
<g>
</g>
<g>
</g>
<g>
</g>
<g>
</g>
<g>
</g>
<g>
</g>
<g>
</g>
<g>
</g>
<g>
</g>
<g>
</g>
<g>
</g>
</svg>
